<?xml version="1.0" encoding="utf-8"?>
<!-- Generator: Adobe Illustrator 19.1.0, SVG Export Plug-In . SVG Version: 6.00 Build 0)  -->
<svg version="1.1" id="Layer_1" xmlns="http://www.w3.org/2000/svg" xmlns:xlink="http://www.w3.org/1999/xlink" x="0px" y="0px"
	 viewBox="0 0 1024 1024" enable-background="new 0 0 1024 1024" xml:space="preserve">
<g>
	<g>
		<path fill-rule="evenodd" clip-rule="evenodd" fill="#FFFFFF" d="M1007,443.3c2.3-0.8,4.1-2.6,5-4.6c1-2.1,1.1-4.5,0.3-6.9
			c-0.8-2.3-2.6-4.1-4.6-5c-2.1-1-4.5-1.1-6.8-0.3l0,0c-2.3,0.9-4.1,2.6-5,4.6c-1,2.1-1.1,4.5-0.3,6.8l0,0c0.9,2.3,2.6,4.1,4.6,5
			C1002.3,444,1004.7,444.1,1007,443.3L1007,443.3z M1015,440c-1.3,2.8-3.7,5.1-6.8,6.3c-3.1,1.2-6.5,0.9-9.3-0.4
			c-2.8-1.3-5.2-3.7-6.3-6.8l0,0c-1.2-3.1-0.9-6.5,0.4-9.3c1.3-2.8,3.7-5.2,6.8-6.3l0,0c3.1-1.2,6.5-0.9,9.3,0.4
			c2.8,1.3,5.2,3.7,6.3,6.8C1016.5,433.8,1016.3,437.2,1015,440z"/>
	</g>
	<g>
		<path fill-rule="evenodd" clip-rule="evenodd" fill="#FFFFFF" d="M997.6,445.2l-8.3,16.5c0.7,0.2,1.3,0.5,1.9,1l8.3-16.5
			c-0.2-0.1-0.4-0.2-0.6-0.3C998.4,445.7,998,445.5,997.6,445.2z"/>
	</g>
	<g>
		<path fill-rule="evenodd" clip-rule="evenodd" fill="#FFFFFF" d="M708.4,404.9l36.4-76.5c-0.6-0.2-1.2-0.4-1.8-0.5l-36.4,76.5
			C707.3,404.6,707.8,404.8,708.4,404.9z"/>
	</g>
	<g>
		<g>
			<path fill="#FFFFFF" d="M593.9,61.2c-1.3,0-2.5-0.9-2.7-2.3c-0.3-1.5,0.7-2.9,2.2-3.2c20.5-3.7,41.4-7.9,61.6-12
				c5.9-1.2,11.7-2.4,17.6-3.5c1.5-0.3,2.9,0.7,3.2,2.2c0.3,1.5-0.7,2.9-2.2,3.2c-5.8,1.2-11.7,2.3-17.6,3.5
				c-20.2,4.1-41.1,8.3-61.7,12C594.2,61.2,594,61.2,593.9,61.2z"/>
		</g>
		<g>
			<path fill="#FFFFFF" d="M812.7,77.1c-0.3,0-0.6-0.1-0.9-0.2c-16.1-5.8-32.7-11.3-48.8-16.6c-13.1-4.3-26.6-8.7-39.6-13.3
				c-1.4-0.5-2.2-2.1-1.7-3.5c0.5-1.4,2.1-2.2,3.5-1.7c13,4.6,26.5,9,39.5,13.3c16.1,5.3,32.8,10.8,49,16.6c1.4,0.5,2.2,2.1,1.7,3.5
				C814.9,76.4,813.8,77.1,812.7,77.1z"/>
		</g>
		<g>
			<path fill="#FFFFFF" d="M911,166.9c-0.8,0-1.6-0.3-2.1-1l-42.3-50.2c-1-1.2-0.8-2.9,0.3-3.9c1.2-1,2.9-0.8,3.9,0.3l42.3,50.2
				c1,1.2,0.8,2.9-0.3,3.9C912.3,166.7,911.7,166.9,911,166.9z"/>
		</g>
		<g>
			<path fill="#FFFFFF" d="M723.9,283.2c-0.3,0-0.7-0.1-1-0.2l-113.7-42.8c-1.4-0.5-2.1-2.1-1.6-3.5c0.5-1.4,2.1-2.1,3.5-1.6
				l113.7,42.8c1.4,0.5,2.1,2.1,1.6,3.5C726.1,282.6,725,283.2,723.9,283.2z"/>
		</g>
		<g>
			<path fill="#FFFFFF" d="M797.9,409.6c-1.3,0-2.5-1-2.7-2.3l-11-71.4c-0.2-1.5,0.8-2.9,2.3-3.1c1.5-0.2,2.9,0.8,3.1,2.3l11,71.4
				c0.2,1.5-0.8,2.9-2.3,3.1C798.1,409.6,798,409.6,797.9,409.6z"/>
		</g>
		<g>
			<path fill="#FFFFFF" d="M851.8,439.2c-0.9,0-1.8-0.5-2.3-1.3c-0.8-1.3-0.4-3,0.9-3.8l67.3-41.2c1.3-0.8,3-0.4,3.8,0.9
				c0.8,1.3,0.4,3-0.9,3.8l-67.3,41.2C852.8,439.1,852.3,439.2,851.8,439.2z"/>
		</g>
		<g>
			<path fill="#FFFFFF" d="M612.9,211.4c-1.3,0-2.5-0.9-2.7-2.2c-0.3-1.5,0.7-2.9,2.2-3.2l130.9-24.3c1.5-0.3,2.9,0.7,3.2,2.2
				c0.3,1.5-0.7,2.9-2.2,3.2l-130.9,24.3C613.2,211.3,613.1,211.4,612.9,211.4z"/>
		</g>
		<g>
			<path fill="#FFFFFF" d="M882.5,201c-0.2,0-0.3,0-0.5,0c-14-2.5-28-4.7-41.6-6.8c-14.8-2.3-30-4.7-45.2-7.4
				c-1.5-0.3-2.5-1.7-2.2-3.2c0.3-1.5,1.7-2.5,3.2-2.2c15.1,2.8,30.3,5.1,45,7.4c13.6,2.1,27.7,4.3,41.7,6.8
				c1.5,0.3,2.5,1.7,2.2,3.2C885,200.1,883.8,201,882.5,201z"/>
		</g>
		<g>
			<path fill="#FFFFFF" d="M554.9,158c-0.1,0-0.2,0-0.4,0c-1.5-0.2-2.6-1.6-2.4-3.1l6.8-49.9c0.2-1.5,1.6-2.6,3.1-2.4
				c1.5,0.2,2.6,1.6,2.4,3.1l-6.8,49.9C557.4,157,556.2,158,554.9,158z"/>
		</g>
	</g>
	<g>
		<path fill-rule="evenodd" clip-rule="evenodd" fill="#FFFFFF" d="M853.2,269c-0.1,2.5,0.9,4.7,2.4,6.4c1.6,1.7,3.8,2.7,6.3,2.8
			l0,0c2.5,0.1,4.7-0.9,6.4-2.4c1.7-1.6,2.7-3.8,2.8-6.3l0,0c0.1-2.5-0.9-4.7-2.4-6.4c-1.6-1.7-3.8-2.7-6.3-2.8
			c-2.5-0.1-4.7,0.9-6.4,2.4C854.3,264.3,853.3,266.5,853.2,269L853.2,269z M862.5,257.1c3.4,0.1,6.4,1.5,8.5,3.8
			c2.1,2.3,3.4,5.3,3.3,8.7v0c-0.1,3.4-1.5,6.4-3.8,8.5c-2.3,2.1-5.3,3.4-8.7,3.3l0,0c-3.4-0.1-6.4-1.5-8.5-3.8
			c-2.1-2.3-3.4-5.3-3.3-8.7c0.1-3.4,1.5-6.4,3.8-8.5C856,258.3,859.1,257,862.5,257.1z"/>
	</g>
	<g>
		<path fill-rule="evenodd" clip-rule="evenodd" fill="#FFFFFF" d="M1003.8,270.6c-0.1-2.5-1.1-4.7-2.8-6.2
			c-1.7-1.6-3.9-2.5-6.4-2.4c-2.5,0.1-4.7,1.1-6.2,2.8c-1.6,1.7-2.5,3.9-2.4,6.4l0,0c0.1,2.5,1.1,4.7,2.8,6.3
			c1.7,1.6,3.9,2.5,6.4,2.4v0c2.5-0.1,4.7-1.1,6.3-2.8C1002.9,275.3,1003.8,273.1,1003.8,270.6L1003.8,270.6z M1003.2,262
			c2.3,2.1,3.7,5.1,3.8,8.5c0.1,3.4-1.2,6.4-3.3,8.7c-2.1,2.3-5.1,3.7-8.5,3.8h0c-3.4,0.1-6.4-1.2-8.7-3.3c-2.3-2.1-3.7-5.1-3.8-8.5
			l0,0c-0.1-3.4,1.2-6.4,3.3-8.7c2.1-2.3,5.1-3.7,8.5-3.8C997.9,258.6,1000.9,259.9,1003.2,262z"/>
	</g>
	<g>
		<path fill-rule="evenodd" clip-rule="evenodd" fill="#FFFFFF" d="M882.3,311.9c0.1-3.4,2.9-6,6.3-5.9c3.4,0.1,6,2.9,5.9,6.3
			c-0.1,3.4-2.9,6-6.3,5.9C884.9,318.1,882.2,315.3,882.3,311.9z"/>
	</g>
	<g>
		<circle fill-rule="evenodd" clip-rule="evenodd" fill="#FFFFFF" cx="670.5" cy="475.7" r="6.1"/>
	</g>
	<g>
		<path fill-rule="evenodd" clip-rule="evenodd" fill="#FFFFFF" d="M684.5,451.7l-11.5,18.8c0.4,0.2,0.9,0.5,1.2,0.8l11.5-18.8
			C685.3,452.3,684.9,452,684.5,451.7z"/>
	</g>
	<g>
		<path fill-rule="evenodd" clip-rule="evenodd" fill="#FFFFFF" d="M77.3,418.5l-23.8,14.4c0.3,0.4,0.6,0.9,0.9,1.4
			c0.1,0.1,0.1,0.3,0.2,0.4l23.8-14.4C78,419.8,77.7,419.2,77.3,418.5z"/>
	</g>
	<g>
		<path fill-rule="evenodd" clip-rule="evenodd" fill="#FFFFFF" d="M958,25.6c-2.1-2.6-5.9-3.1-8.6-1c-2.6,2.1-3.1,5.9-1,8.6
			c2.1,2.7,5.9,3.1,8.6,1C959.6,32.1,960,28.3,958,25.6z"/>
	</g>
	<g>
		<path fill-rule="evenodd" clip-rule="evenodd" fill="#FFFFFF" d="M876.3,67.5L948.2,33c-0.4-0.6-0.7-1.3-0.9-1.9l-71.9,34.5
			C875.8,66.2,876.1,66.8,876.3,67.5z"/>
	</g>
	<g>
		<path fill-rule="evenodd" clip-rule="evenodd" fill="#FFFFFF" d="M892,229.5L870.1,260c-0.5-0.5-1.1-0.9-1.7-1.3l21.9-30.5
			C890.8,228.7,891.4,229.1,892,229.5z"/>
	</g>
	<g>
		<path fill-rule="evenodd" clip-rule="evenodd" fill="#FFFFFF" d="M869.4,279l16.8,27.4c-0.7,0.3-1.3,0.6-1.8,1.1l-16.8-27.4
			C868.2,279.8,868.8,279.4,869.4,279z"/>
	</g>
	<g>
		<path fill-rule="evenodd" clip-rule="evenodd" fill="#FFFFFF" d="M986.1,262.4l-24.3-19.9c-0.4,0.6-0.9,1.1-1.4,1.7l24.3,19.9
			c0.4-0.5,0.8-1,1.2-1.5C986,262.5,986.1,262.4,986.1,262.4z"/>
	</g>
	<g>
		<path fill-rule="evenodd" clip-rule="evenodd" fill="#FFFFFF" d="M989.7,473.4c3.2-1.2,4.8-4.7,3.6-7.8c-1.2-3.2-4.7-4.8-7.8-3.6
			c-3.2,1.2-4.8,4.7-3.6,7.8C983,472.9,986.5,474.5,989.7,473.4z"/>
	</g>
	<g>
		<path fill-rule="evenodd" clip-rule="evenodd" fill="#FFFFFF" d="M997.2,424.8l-22.6-28.1c-0.5,0.5-1.1,0.9-1.7,1.3l22.6,28.1
			C996,425.6,996.6,425.2,997.2,424.8z"/>
	</g>
	<g>
		<path fill-rule="evenodd" clip-rule="evenodd" fill="#FFFFFF" d="M875.5,494.1c-2.4-0.5-4.8,0.1-6.7,1.4c-1.9,1.3-3.3,3.3-3.8,5.7
			c-0.5,2.4,0.1,4.8,1.4,6.7c1.3,1.9,3.3,3.3,5.7,3.8l0,0c2.4,0.5,4.8-0.1,6.7-1.4c1.9-1.3,3.3-3.3,3.8-5.7l0,0
			c0.5-2.4-0.1-4.8-1.4-6.7C880,495.9,878,494.5,875.5,494.1L875.5,494.1z M867,492.8c2.6-1.8,5.8-2.5,9.2-1.9
			c3.3,0.6,6,2.6,7.8,5.1c1.8,2.6,2.5,5.8,1.9,9.1l0,0c-0.6,3.3-2.6,6-5.1,7.8c-2.6,1.8-5.8,2.5-9.2,1.9l0,0c-3.3-0.6-6-2.6-7.8-5.1
			c-1.8-2.6-2.5-5.8-1.9-9.2C862.5,497.3,864.4,494.5,867,492.8z"/>
	</g>
	<g>
		<path fill-rule="evenodd" clip-rule="evenodd" fill="#FFFFFF" d="M864.9,494.5l-19.8-15.6c-0.4,0.6-0.9,1.1-1.3,1.7l19.8,15.6
			C864,495.6,864.5,495,864.9,494.5z"/>
	</g>
	<g>
		<path fill-rule="evenodd" clip-rule="evenodd" fill="#FFFFFF" d="M884.5,508.9c-0.4,0.6-0.8,1.2-1.2,1.8l11.9,8.2
			c0.3-0.7,0.7-1.3,1.2-1.8L884.5,508.9z"/>
	</g>
	<g>
		<path fill-rule="evenodd" clip-rule="evenodd" fill="#FFFFFF" d="M627.1,439.2c-0.1-2.5-1.1-4.7-2.8-6.2c-1.7-1.6-3.9-2.5-6.4-2.4
			c-2.5,0.1-4.7,1.1-6.2,2.8c-1.6,1.7-2.5,3.9-2.4,6.4h0c0.1,2.5,1.1,4.7,2.8,6.3c1.7,1.6,3.9,2.5,6.4,2.4l0,0
			c2.5-0.1,4.7-1.1,6.3-2.8C626.2,443.9,627.1,441.7,627.1,439.2L627.1,439.2z M626.5,430.6c2.3,2.1,3.7,5.1,3.8,8.5
			c0.1,3.4-1.2,6.4-3.3,8.7c-2.1,2.3-5.1,3.7-8.5,3.8h0c-3.4,0.1-6.4-1.2-8.7-3.3c-2.3-2.1-3.7-5.1-3.8-8.5l0,0
			c-0.1-3.4,1.2-6.4,3.3-8.7c2.1-2.3,5.1-3.7,8.5-3.8C621.2,427.2,624.2,428.5,626.5,430.6z"/>
	</g>
	<g>
		<path fill-rule="evenodd" clip-rule="evenodd" fill="#FFFFFF" d="M640.9,363.9c-0.1-2.5-1.1-4.7-2.8-6.2c-1.7-1.6-3.9-2.5-6.4-2.4
			c-2.5,0.1-4.7,1.1-6.2,2.8c-1.6,1.7-2.5,3.9-2.4,6.4l0,0c0.1,2.5,1.1,4.7,2.8,6.3c1.7,1.6,3.9,2.5,6.4,2.4v0
			c2.5-0.1,4.7-1.1,6.3-2.8C640.1,368.6,641,366.3,640.9,363.9L640.9,363.9z M640.3,355.3c2.3,2.1,3.7,5.1,3.8,8.5
			c0.1,3.4-1.2,6.4-3.3,8.7c-2.1,2.3-5.1,3.7-8.5,3.8h0c-3.4,0.1-6.4-1.2-8.7-3.3c-2.3-2.1-3.7-5.1-3.8-8.5l0,0
			c-0.1-3.4,1.2-6.4,3.3-8.7c2.1-2.3,5.1-3.7,8.5-3.8C635,351.9,638.1,353.2,640.3,355.3z"/>
	</g>
	<g>
		<path fill-rule="evenodd" clip-rule="evenodd" fill="#FFFFFF" d="M679,409.7l-37.7-37.8c-0.2,0.2-0.3,0.4-0.5,0.5
			c-0.3,0.3-0.7,0.7-1,1l37.7,37.8C678,410.7,678.5,410.2,679,409.7z"/>
	</g>
	<g>
		<path fill-rule="evenodd" clip-rule="evenodd" fill="#FFFFFF" d="M670.7,431.2l-40.7,5.5c0.2,0.7,0.3,1.4,0.3,2.1l40.7-5.5
			C670.9,432.6,670.8,431.9,670.7,431.2z"/>
	</g>
	<g>
		<path fill-rule="evenodd" clip-rule="evenodd" fill="#FFFFFF" d="M790.5,17.8c-0.1-2.5-1.1-4.7-2.8-6.2c-1.7-1.6-3.9-2.5-6.4-2.4
			c-2.5,0.1-4.7,1.1-6.2,2.8c-1.6,1.7-2.5,3.9-2.4,6.4v0c0.1,2.5,1.1,4.7,2.8,6.3c1.7,1.6,3.9,2.5,6.4,2.4l0,0
			c2.5-0.1,4.7-1.1,6.3-2.8C789.6,22.6,790.6,20.3,790.5,17.8L790.5,17.8z M789.9,9.3c2.3,2.1,3.7,5.1,3.8,8.5
			c0.1,3.4-1.2,6.4-3.3,8.7c-2.1,2.3-5.1,3.7-8.5,3.8l0,0c-3.4,0.1-6.4-1.2-8.7-3.3c-2.3-2.1-3.7-5.1-3.8-8.5l0,0
			c-0.1-3.4,1.2-6.4,3.3-8.7c2.1-2.3,5.1-3.7,8.5-3.8C784.6,5.8,787.7,7.1,789.9,9.3z"/>
	</g>
	<g>
		<circle fill-rule="evenodd" clip-rule="evenodd" fill="#FFFFFF" cx="707.1" cy="106.1" r="6.1"/>
	</g>
	<g>
		<path fill-rule="evenodd" clip-rule="evenodd" fill="#FFFFFF" d="M970.7,139.8c3.2-4.7,2-11.2-2.7-14.4c-4.7-3.2-11.2-2-14.4,2.7
			c-3.2,4.7-2,11.2,2.7,14.4C961.1,145.7,967.5,144.5,970.7,139.8z"/>
	</g>
	<g>
		<path fill-rule="evenodd" clip-rule="evenodd" fill="#FFFFFF" d="M703.8,68.9l1.8,31.2c0.7-0.2,1.4-0.2,2.1-0.1L706,68.8
			c-0.2,0-0.4,0-0.6,0.1C704.8,68.9,704.3,68.9,703.8,68.9z"/>
	</g>
	<g>
		<path fill-rule="evenodd" clip-rule="evenodd" fill="#FFFFFF" d="M720.3,32.1l49.7-10.4c-0.2-0.7-0.4-1.4-0.4-2.1L719.8,30
			C720,30.6,720.1,31.3,720.3,32.1z"/>
	</g>
	<g>
		<path fill-rule="evenodd" clip-rule="evenodd" fill="#FFFFFF" d="M948.4,158.9c1.1,0.4,2.2,0.9,3.3,1.6l7.8-16.5
			c-1.1-0.3-2.2-0.8-3.1-1.4c0,0-0.1-0.1-0.1-0.1L948.4,158.9z"/>
	</g>
	<g>
		<path fill-rule="evenodd" clip-rule="evenodd" fill="#FFFFFF" d="M52.5,440.1c-1.2-5.9-4.7-10.7-9.3-13.7
			c-4.6-3-10.4-4.3-16.3-3.1c-5.9,1.2-10.7,4.7-13.7,9.3c-3,4.6-4.3,10.4-3.1,16.3c1.2,5.9,4.7,10.7,9.3,13.7
			c4.6,3,10.4,4.3,16.3,3.1l0,0c5.9-1.2,10.7-4.7,13.7-9.3C52.4,451.8,53.7,446,52.5,440.1L52.5,440.1L52.5,440.1z M45.5,422.8
			c5.5,3.6,9.7,9.3,11.1,16.3l0,0l0,0.2c1.5,7-0.1,14-3.7,19.5c-3.6,5.5-9.3,9.7-16.3,11.1l0,0l-0.1,0c-7,1.5-14-0.1-19.5-3.7
			c-5.6-3.7-9.7-9.4-11.2-16.4c-1.5-7,0.1-14,3.7-19.5c3.7-5.6,9.4-9.7,16.4-11.2C33,417.6,40,419.1,45.5,422.8z"/>
	</g>
	<g>
		<path fill-rule="evenodd" clip-rule="evenodd" fill="#FFFFFF" d="M721,43.1c-0.2-6.1-2.8-11.6-6.9-15.5c-4.1-3.9-9.7-6.2-15.9-6.1
			c-6.1,0.2-11.6,2.8-15.5,6.9c-3.9,4.1-6.2,9.7-6.1,15.9c0.2,6.1,2.8,11.6,6.9,15.5c4.1,3.9,9.7,6.2,15.9,6.1
			c6.1-0.2,11.6-2.8,15.5-6.9C718.8,54.9,721.1,49.3,721,43.1L721,43.1z M717.1,24.4c4.9,4.7,8.1,11.2,8.3,18.6
			c0.2,7.3-2.6,14.1-7.3,19c-4.7,4.9-11.2,8.1-18.6,8.3c-7.3,0.2-14.1-2.6-19-7.3c-4.9-4.7-8.1-11.2-8.3-18.6
			c-0.2-7.3,2.6-14.1,7.3-19c4.7-4.9,11.2-8.1,18.6-8.3C705.4,16.9,712.1,19.7,717.1,24.4z"/>
	</g>
	<g>
		<path fill-rule="evenodd" clip-rule="evenodd" fill="#FFFFFF" d="M791,180.8c-1.2-5.9-4.7-10.7-9.3-13.7c-4.6-3-10.4-4.3-16.3-3.1
			c-5.9,1.2-10.7,4.7-13.7,9.3c-3,4.6-4.3,10.4-3.1,16.3c1.2,5.9,4.7,10.7,9.3,13.7c4.6,3,10.4,4.3,16.3,3.1l0,0
			c5.9-1.2,10.7-4.7,13.7-9.3C791,192.5,792.2,186.7,791,180.8L791,180.8L791,180.8z M784,163.5c5.5,3.6,9.7,9.3,11.1,16.3l0,0
			l0,0.2c1.5,7-0.1,14-3.7,19.5c-3.6,5.5-9.3,9.7-16.3,11.1l0,0l-0.1,0c-7,1.5-14-0.1-19.5-3.7c-5.6-3.6-9.7-9.4-11.2-16.4
			c-1.5-7,0.1-14,3.7-19.5c3.6-5.6,9.4-9.7,16.4-11.2C771.5,158.3,778.5,159.9,784,163.5z"/>
	</g>
	<g>
		<path fill-rule="evenodd" clip-rule="evenodd" fill="#FFFFFF" d="M717.8,424.4c-1.2-5.9-4.7-10.7-9.3-13.7
			c-4.6-3-10.4-4.3-16.3-3.1c-5.9,1.2-10.7,4.7-13.7,9.3c-3,4.6-4.3,10.4-3.1,16.3c1.2,5.9,4.7,10.7,9.3,13.7
			c4.6,3,10.4,4.3,16.3,3.1l0,0c5.9-1.2,10.7-4.7,13.7-9.3C717.7,436.1,719,430.3,717.8,424.4L717.8,424.4L717.8,424.4z
			 M710.8,407.1c5.5,3.6,9.7,9.3,11.1,16.3l0,0l0,0.2c1.5,7-0.1,14-3.7,19.5c-3.6,5.5-9.3,9.7-16.3,11.1l0,0l-0.1,0
			c-7,1.5-14-0.1-19.5-3.7c-5.6-3.6-9.7-9.4-11.2-16.4c-1.5-7,0.1-14,3.7-19.5c3.7-5.6,9.4-9.7,16.4-11.2
			C698.3,401.9,705.3,403.5,710.8,407.1z"/>
	</g>
	<g>
		<g>
			<path fill="#FFFFFF" d="M699,426.4h6.6c-0.8-3.3-3.4-5.8-6.6-6.6V426.4z"/>
		</g>
		<g>
			<path fill="#FFFFFF" d="M699,426.4"/>
		</g>
		<g>
			<path fill="#FFFFFF" d="M699,431.1v6.6c3.3-0.8,5.8-3.4,6.6-6.6H699z"/>
		</g>
		<g>
			<path fill="#FFFFFF" d="M699,431.1"/>
		</g>
		<g>
			<path fill="#FFFFFF" d="M694.3,426.4v-6.6c-3.3,0.8-5.8,3.4-6.6,6.6H694.3z"/>
		</g>
		<g>
			<path fill="#FFFFFF" d="M694.3,426.4"/>
		</g>
		<g>
			<path fill="#FFFFFF" d="M694.3,431.1h-6.6c0.8,3.3,3.4,5.8,6.6,6.6V431.1z"/>
		</g>
		<g>
			<path fill="#FFFFFF" d="M694.3,431.1"/>
		</g>
		<g>
			<path fill="#FFFFFF" d="M699,415c5.8,1,10.4,5.6,11.4,11.4h4.7c-1.1-8.4-7.6-15-16-16V415z"/>
		</g>
		<g>
			<path fill="#FFFFFF" d="M699,415"/>
		</g>
		<g>
			<path fill="#FFFFFF" d="M682.9,426.4c1-5.8,5.6-10.4,11.4-11.4v-4.7c-8.4,1.1-15,7.6-16,16H682.9z"/>
		</g>
		<g>
			<path fill="#FFFFFF" d="M682.9,426.4"/>
		</g>
		<g>
			<path fill="#FFFFFF" d="M694.3,442.4c-5.8-1-10.4-5.6-11.4-11.4h-4.7c1.1,8.4,7.6,15,16,16V442.4z"/>
		</g>
		<g>
			<path fill="#FFFFFF" d="M694.3,442.4"/>
		</g>
		<g>
			<path fill="#FFFFFF" d="M710.4,431.1c-1,5.8-5.6,10.4-11.4,11.4v4.7c8.4-1.1,15-7.6,16-16H710.4z"/>
		</g>
		<g>
			<path fill="#FFFFFF" d="M710.4,431.1"/>
		</g>
	</g>
	<g>
		<line fill="#FFFFFF" x1="234" y1="170" x2="234" y2="215"/>
	</g>
	<g>
		<g>
			<path fill="#FFFFFF" d="M33.7,442.1h6.6c-0.8-3.3-3.4-5.8-6.6-6.6V442.1z"/>
		</g>
		<g>
			<path fill="#FFFFFF" d="M33.7,442.1"/>
		</g>
		<g>
			<path fill="#FFFFFF" d="M33.7,446.7v6.6c3.3-0.8,5.8-3.4,6.6-6.6H33.7z"/>
		</g>
		<g>
			<path fill="#FFFFFF" d="M33.7,446.7"/>
		</g>
		<g>
			<path fill="#FFFFFF" d="M29,442.1v-6.6c-3.3,0.8-5.8,3.4-6.6,6.6H29z"/>
		</g>
		<g>
			<path fill="#FFFFFF" d="M29,442.1"/>
		</g>
		<g>
			<path fill="#FFFFFF" d="M29,446.7h-6.6c0.8,3.3,3.4,5.8,6.6,6.6V446.7z"/>
		</g>
		<g>
			<path fill="#FFFFFF" d="M29,446.7"/>
		</g>
		<g>
			<path fill="#FFFFFF" d="M33.7,430.7c5.8,1,10.4,5.6,11.4,11.4h4.7c-1.1-8.4-7.6-15-16-16V430.7z"/>
		</g>
		<g>
			<path fill="#FFFFFF" d="M33.7,430.7"/>
		</g>
		<g>
			<path fill="#FFFFFF" d="M17.6,442.1c1-5.8,5.6-10.4,11.4-11.4V426c-8.4,1.1-15,7.6-16,16H17.6z"/>
		</g>
		<g>
			<path fill="#FFFFFF" d="M17.6,442.1"/>
		</g>
		<g>
			<path fill="#FFFFFF" d="M29,458.1c-5.8-1-10.4-5.6-11.4-11.4H13c1.1,8.4,7.6,15,16,16V458.1z"/>
		</g>
		<g>
			<path fill="#FFFFFF" d="M29,458.1"/>
		</g>
		<g>
			<path fill="#FFFFFF" d="M45,446.7c-1,5.8-5.6,10.4-11.4,11.4v4.7c8.4-1.1,15-7.6,16-16H45z"/>
		</g>
		<g>
			<path fill="#FFFFFF" d="M45,446.7"/>
		</g>
	</g>
	<g>
		<g>
			<path fill="#FFFFFF" d="M109.8,66.1h9.1c-1.2-4.5-4.7-8-9.1-9.1V66.1z"/>
		</g>
		<g>
			<path fill="#FFFFFF" d="M109.8,66.1"/>
		</g>
		<g>
			<path fill="#FFFFFF" d="M109.8,72.5v9.1c4.5-1.2,8-4.7,9.1-9.1H109.8z"/>
		</g>
		<g>
			<path fill="#FFFFFF" d="M109.8,72.5"/>
		</g>
		<g>
			<path fill="#FFFFFF" d="M103.5,66.1V57c-4.5,1.2-8,4.7-9.1,9.1H103.5z"/>
		</g>
		<g>
			<path fill="#FFFFFF" d="M103.5,66.1"/>
		</g>
		<g>
			<path fill="#FFFFFF" d="M103.5,72.5h-9.1c1.2,4.5,4.7,8,9.1,9.1V72.5z"/>
		</g>
		<g>
			<path fill="#FFFFFF" d="M103.5,72.5"/>
		</g>
		<g>
			<path fill="#FFFFFF" d="M109.8,50.5c8,1.4,14.3,7.6,15.6,15.6h6.4c-1.5-11.5-10.5-20.6-22-22V50.5z"/>
		</g>
		<g>
			<path fill="#FFFFFF" d="M109.8,50.5"/>
		</g>
		<g>
			<path fill="#FFFFFF" d="M87.8,66.1c1.4-8,7.6-14.3,15.6-15.6v-6.4c-11.5,1.5-20.6,10.5-22,22H87.8z"/>
		</g>
		<g>
			<path fill="#FFFFFF" d="M87.8,66.1"/>
		</g>
		<g>
			<path fill="#FFFFFF" d="M103.5,88.1c-8-1.4-14.3-7.6-15.6-15.6h-6.4c1.5,11.5,10.5,20.6,22,22V88.1z"/>
		</g>
		<g>
			<path fill="#FFFFFF" d="M103.5,88.1"/>
		</g>
		<g>
			<path fill="#FFFFFF" d="M125.5,72.5c-1.4,8-7.6,14.3-15.6,15.6v6.4c11.5-1.5,20.6-10.5,22-22H125.5z"/>
		</g>
		<g>
			<path fill="#FFFFFF" d="M125.5,72.5"/>
		</g>
	</g>
	<g>
		<g>
			<path fill="#FFFFFF" d="M425.2,48.9h5.1c-0.7-2.5-2.6-4.5-5.1-5.1V48.9z"/>
		</g>
		<g>
			<path fill="#FFFFFF" d="M425.2,48.9"/>
		</g>
		<g>
			<path fill="#FFFFFF" d="M425.2,52.5v5.1c2.5-0.6,4.5-2.6,5.1-5.1H425.2z"/>
		</g>
		<g>
			<path fill="#FFFFFF" d="M425.2,52.5"/>
		</g>
		<g>
			<path fill="#FFFFFF" d="M421.6,48.9v-5.1c-2.5,0.6-4.5,2.6-5.1,5.1H421.6z"/>
		</g>
		<g>
			<path fill="#FFFFFF" d="M421.6,48.9"/>
		</g>
		<g>
			<path fill="#FFFFFF" d="M421.6,52.5h-5.1c0.6,2.5,2.6,4.5,5.1,5.1V52.5z"/>
		</g>
		<g>
			<path fill="#FFFFFF" d="M421.6,52.5"/>
		</g>
		<g>
			<path fill="#FFFFFF" d="M425.2,40.1c4.5,0.8,8,4.3,8.8,8.8h3.6c-0.8-6.5-5.9-11.5-12.4-12.4V40.1z"/>
		</g>
		<g>
			<path fill="#FFFFFF" d="M425.2,40.1"/>
		</g>
		<g>
			<path fill="#FFFFFF" d="M412.8,48.9c0.8-4.5,4.3-8,8.8-8.8v-3.6c-6.5,0.8-11.5,5.9-12.4,12.4H412.8z"/>
		</g>
		<g>
			<path fill="#FFFFFF" d="M412.8,48.9"/>
		</g>
		<g>
			<path fill="#FFFFFF" d="M421.6,61.2c-4.5-0.8-8-4.3-8.8-8.8h-3.6c0.8,6.5,5.9,11.5,12.4,12.4V61.2z"/>
		</g>
		<g>
			<path fill="#FFFFFF" d="M421.6,61.2"/>
		</g>
		<g>
			<path fill="#FFFFFF" d="M434,52.5c-0.8,4.5-4.3,8-8.8,8.8v3.6c6.5-0.8,11.5-5.9,12.4-12.4H434z"/>
		</g>
		<g>
			<path fill="#FFFFFF" d="M434,52.5"/>
		</g>
	</g>
	<g>
		<g>
			<path fill="#FFFFFF" d="M700.9,41.6h6.8c-0.9-3.3-3.5-5.9-6.8-6.8V41.6z"/>
		</g>
		<g>
			<path fill="#FFFFFF" d="M700.9,41.6"/>
		</g>
		<g>
			<path fill="#FFFFFF" d="M700.9,46.4v6.8c3.3-0.9,5.9-3.5,6.8-6.8H700.9z"/>
		</g>
		<g>
			<path fill="#FFFFFF" d="M700.9,46.4"/>
		</g>
		<g>
			<path fill="#FFFFFF" d="M696.2,41.6v-6.8c-3.3,0.9-5.9,3.5-6.8,6.8H696.2z"/>
		</g>
		<g>
			<path fill="#FFFFFF" d="M696.2,41.6"/>
		</g>
		<g>
			<path fill="#FFFFFF" d="M696.2,46.4h-6.8c0.9,3.3,3.5,5.9,6.8,6.8V46.4z"/>
		</g>
		<g>
			<path fill="#FFFFFF" d="M696.2,46.4"/>
		</g>
		<g>
			<path fill="#FFFFFF" d="M700.9,29.9c6,1,10.6,5.7,11.7,11.7h4.8c-1.1-8.6-7.8-15.3-16.4-16.4V29.9z"/>
		</g>
		<g>
			<path fill="#FFFFFF" d="M700.9,29.9"/>
		</g>
		<g>
			<path fill="#FFFFFF" d="M684.5,41.6c1-6,5.7-10.6,11.7-11.7v-4.8c-8.6,1.1-15.3,7.8-16.4,16.4H684.5z"/>
		</g>
		<g>
			<path fill="#FFFFFF" d="M684.5,41.6"/>
		</g>
		<g>
			<path fill="#FFFFFF" d="M696.2,58c-6-1-10.6-5.7-11.7-11.6h-4.8c1.1,8.6,7.8,15.3,16.4,16.4V58z"/>
		</g>
		<g>
			<path fill="#FFFFFF" d="M696.2,58"/>
		</g>
		<g>
			<path fill="#FFFFFF" d="M712.6,46.4c-1,6-5.7,10.6-11.7,11.6v4.8c8.6-1.1,15.3-7.8,16.4-16.4H712.6z"/>
		</g>
		<g>
			<path fill="#FFFFFF" d="M712.6,46.4"/>
		</g>
	</g>
	<g>
		<g>
			<path fill="#FFFFFF" d="M772.2,182.8h6.6c-0.8-3.3-3.4-5.8-6.6-6.6V182.8z"/>
		</g>
		<g>
			<path fill="#FFFFFF" d="M772.2,182.8"/>
		</g>
		<g>
			<path fill="#FFFFFF" d="M772.2,187.5v6.6c3.3-0.8,5.8-3.4,6.6-6.6H772.2z"/>
		</g>
		<g>
			<path fill="#FFFFFF" d="M772.2,187.5"/>
		</g>
		<g>
			<path fill="#FFFFFF" d="M767.5,182.8v-6.6c-3.3,0.8-5.8,3.4-6.6,6.6H767.5z"/>
		</g>
		<g>
			<path fill="#FFFFFF" d="M767.5,182.8"/>
		</g>
		<g>
			<path fill="#FFFFFF" d="M767.5,187.5h-6.6c0.8,3.3,3.4,5.8,6.6,6.6V187.5z"/>
		</g>
		<g>
			<path fill="#FFFFFF" d="M767.5,187.5"/>
		</g>
		<g>
			<path fill="#FFFFFF" d="M772.2,171.4c5.8,1,10.4,5.6,11.4,11.4h4.7c-1.1-8.4-7.6-15-16-16V171.4z"/>
		</g>
		<g>
			<path fill="#FFFFFF" d="M772.2,171.4"/>
		</g>
		<g>
			<path fill="#FFFFFF" d="M756.1,182.8c1-5.8,5.6-10.4,11.4-11.4v-4.7c-8.4,1.1-15,7.6-16,16H756.1z"/>
		</g>
		<g>
			<path fill="#FFFFFF" d="M756.1,182.8"/>
		</g>
		<g>
			<path fill="#FFFFFF" d="M767.5,198.9c-5.8-1-10.4-5.6-11.4-11.4h-4.7c1.1,8.4,7.6,15,16,16V198.9z"/>
		</g>
		<g>
			<path fill="#FFFFFF" d="M767.5,198.9"/>
		</g>
		<g>
			<path fill="#FFFFFF" d="M783.6,187.5c-1,5.8-5.6,10.4-11.4,11.4v4.7c8.4-1.1,15-7.6,16-16H783.6z"/>
		</g>
		<g>
			<path fill="#FFFFFF" d="M783.6,187.5"/>
		</g>
	</g>
	<g>
		<g>
			<path fill="#FFFFFF" d="M363.5,141.9v7.3h19.6V137h-19.6V141.9z M366,139.4h14.7v2.4H366V139.4z M366,144.3h14.7v2.5H366V144.3z
				 M366,144.3"/>
		</g>
		<g>
			<path fill="#FFFFFF" d="M383.1,119.8v-7.3h-19.6v12.2h19.6V119.8z M383.1,119.8"/>
		</g>
		<g>
			<path fill="#FFFFFF" d="M388,119.8h-2.5v7.4h-24.5v-7.4h-2.4c-2.5,0-4.9,2.5-4.9,4.9V137c0,2.5,2.5,4.9,4.9,4.9h2.4v-7.4h24.5
				v7.4h2.5c2.5,0,4.9-2.4,4.9-4.9v-12.2C392.9,122.3,390.5,119.8,388,119.8L388,119.8z M388,119.8"/>
		</g>
	</g>
	<g>
		<path fill="#FFFFFF" d="M361.6,361.3c0,1-0.7,1.7-1.7,1.7h-7c-1,0-1.7-0.8-1.7-1.7c0,0,0.3-10.2,0.3-14.2c0-3.9-0.3-13.9-0.3-13.9
			c0-1,0.7-1.7,1.7-1.7h7c1,0,1.7,0.8,1.7,1.7c0,0-0.3,10-0.3,13.9C361.3,351.1,361.6,361.3,361.6,361.3L361.6,361.3z M361.6,361.3"
			/>
	</g>
	<g>
		<g>
			<polygon fill="#FFFFFF" points="236.4,310.5 220.5,310.5 212.5,321.1 212.5,326.4 244.3,326.4 244.3,321.1 			"/>
		</g>
		<g>
			<path fill="#FFFFFF" d="M262.2,295h-67.6v-40.9h67.6V295z M228.8,303.9c-1.6,0-2.8-1.3-2.8-2.8c0-1.6,1.3-2.8,2.8-2.8
				c1.6,0,2.8,1.3,2.8,2.8C231.7,302.6,230.4,303.9,228.8,303.9 M228.8,305.6c-2.5,0-4.5-2-4.5-4.6c0-2.5,2-4.5,4.5-4.5
				c2.5,0,4.5,2,4.5,4.5C233.3,303.6,231.3,305.6,228.8,305.6 M262.6,248.4h-68.3c-2.9,0-5.3,2.4-5.3,5.3v48.6
				c0,2.9,2.4,5.3,5.3,5.3h68.3c2.9,0,5.2-2.4,5.2-5.3v-48.6C267.9,250.8,265.5,248.4,262.6,248.4"/>
		</g>
	</g>
	<g>
		<g>
			<rect x="542.2" y="214.9" fill="#FFFFFF" width="5.4" height="5.4"/>
		</g>
		<g>
			<rect x="535.5" y="214.9" fill="#FFFFFF" width="5.4" height="5.4"/>
		</g>
		<g>
			<rect x="528.6" y="214.9" fill="#FFFFFF" width="5.4" height="5.4"/>
		</g>
		<g>
			<rect x="521.8" y="214.9" fill="#FFFFFF" width="5.4" height="5.4"/>
		</g>
		<g>
			<rect x="515.1" y="214.9" fill="#FFFFFF" width="5.4" height="5.4"/>
		</g>
		<g>
			<rect x="508.3" y="214.9" fill="#FFFFFF" width="5.4" height="5.4"/>
		</g>
		<g>
			<rect x="542.2" y="221.4" fill="#FFFFFF" width="5.4" height="5.4"/>
		</g>
		<g>
			<rect x="535.5" y="221.4" fill="#FFFFFF" width="5.4" height="5.4"/>
		</g>
		<g>
			<rect x="528.6" y="221.4" fill="#FFFFFF" width="5.4" height="5.4"/>
		</g>
		<g>
			<rect x="521.8" y="221.4" fill="#FFFFFF" width="5.4" height="5.4"/>
		</g>
		<g>
			<rect x="515.1" y="221.4" fill="#FFFFFF" width="5.4" height="5.4"/>
		</g>
		<g>
			<rect x="508.3" y="221.4" fill="#FFFFFF" width="5.4" height="5.4"/>
		</g>
		<g>
			<g>
				<path fill="#FFFFFF" d="M598,234h-98v-26h98V234z M505,230h88v-19h-88V230z"/>
			</g>
		</g>
	</g>
	<g>
		<path fill-rule="evenodd" clip-rule="evenodd" fill="#FFFFFF" d="M791.6,258.3c-9.6-6.3-20.9-8.2-31.3-6
			c-10.4,2.2-20.1,8.3-26.4,17.9c-6.3,9.6-8.2,20.9-6,31.3c2.2,10.4,8.3,20.1,17.9,26.4c9.6,6.3,20.9,8.2,31.3,6
			c10.4-2.2,20.1-8.3,26.4-17.9c6.3-9.6,8.2-20.9,6-31.3C807.3,274.2,801.2,264.6,791.6,258.3L791.6,258.3z M758.6,244.2
			c12.5-2.6,26-0.4,37.5,7.2c11.5,7.6,18.9,19.1,21.4,31.6c2.6,12.5,0.4,26-7.2,37.5c-7.6,11.5-19.1,18.9-31.6,21.4
			c-12.5,2.6-26,0.4-37.5-7.2c-11.5-7.6-18.9-19.1-21.4-31.6c-2.6-12.5-0.4-26,7.2-37.5C734.5,254.1,746,246.8,758.6,244.2z"/>
	</g>
	<g>
		<path fill-rule="evenodd" clip-rule="evenodd" fill="#FFFFFF" d="M966.8,342.1c-7.6-5-16.4-6.4-24.6-4.7
			c-8.2,1.7-15.8,6.5-20.8,14.1c-5,7.6-6.4,16.4-4.7,24.6c1.7,8.2,6.5,15.8,14.1,20.8c7.6,5,16.4,6.4,24.6,4.7
			c8.2-1.7,15.8-6.5,20.8-14.1c5-7.6,6.4-16.4,4.7-24.6C979.2,354.7,974.4,347.1,966.8,342.1L966.8,342.1z M940.9,331.1
			c9.8-2,20.5-0.3,29.5,5.7c9,6,14.8,15,16.9,24.9c2,9.8,0.3,20.5-5.7,29.5c-6,9.1-15,14.8-24.9,16.9c-9.8,2-20.5,0.3-29.5-5.7
			c-9-6-14.8-15-16.9-24.9c-2-9.8-0.3-20.5,5.7-29.5C922,338.9,931,333.1,940.9,331.1z"/>
	</g>
	<g>
		<path fill-rule="evenodd" clip-rule="evenodd" fill="#FFFFFF" d="M863.4,60.2c-7.6-5-16.4-6.4-24.6-4.7
			c-8.2,1.7-15.8,6.5-20.8,14.1c-5,7.6-6.4,16.4-4.7,24.6c1.7,8.2,6.5,15.8,14.1,20.8c7.6,5,16.4,6.4,24.6,4.7
			c8.2-1.7,15.8-6.5,20.8-14.1c5-7.6,6.4-16.4,4.7-24.6C875.8,72.8,870.9,65.2,863.4,60.2L863.4,60.2z M837.4,49.1
			c9.8-2,20.5-0.3,29.5,5.7c9,6,14.8,15,16.9,24.9c2,9.8,0.3,20.5-5.7,29.5c-6,9.1-15,14.8-24.9,16.9c-9.8,2-20.5,0.3-29.5-5.7
			c-9-6-14.8-15-16.9-24.9c-2-9.8-0.3-20.5,5.7-29.5C818.5,57,827.6,51.2,837.4,49.1z"/>
	</g>
	<g>
		<path fill-rule="evenodd" clip-rule="evenodd" fill="#FFFFFF" d="M831.4,416.2c-9.6-6.3-20.9-8.1-31.3-6
			c-10.4,2.2-20.1,8.3-26.4,17.9c-6.3,9.6-8.2,20.9-6,31.3c2.2,10.4,8.3,20.1,17.9,26.4c9.6,6.3,20.9,8.2,31.3,6
			c10.4-2.2,20.1-8.3,26.4-17.9c6.3-9.6,8.1-20.9,6-31.3C847.1,432.2,841,422.6,831.4,416.2L831.4,416.2z M798.4,402.2
			c12.5-2.6,26-0.4,37.5,7.2c11.5,7.6,18.8,19.1,21.4,31.6c2.6,12.5,0.4,26-7.2,37.5c-7.6,11.5-19.1,18.8-31.6,21.4
			c-12.5,2.6-26,0.4-37.5-7.2c-11.5-7.6-18.8-19.1-21.4-31.6c-2.6-12.5-0.4-26,7.2-37.5C774.4,412.1,785.9,404.8,798.4,402.2z"/>
	</g>
	<g>
		<path fill-rule="evenodd" clip-rule="evenodd" fill="#FFFFFF" d="M955,168.7c-9.6-6.3-20.9-8.1-31.3-6
			c-10.4,2.2-20.1,8.3-26.4,17.9c-6.3,9.6-8.2,20.9-6,31.3c2.2,10.4,8.3,20.1,17.9,26.4c9.6,6.3,20.9,8.2,31.3,6
			c10.4-2.2,20.1-8.3,26.4-17.9c6.3-9.6,8.1-20.9,6-31.3C970.8,184.7,964.6,175,955,168.7L955,168.7z M922,154.6
			c12.5-2.6,26-0.4,37.5,7.2c11.5,7.6,18.8,19.1,21.4,31.6c2.6,12.5,0.4,26-7.2,37.5c-7.6,11.5-19.1,18.8-31.6,21.4
			c-12.5,2.6-26,0.4-37.5-7.2c-11.5-7.6-18.8-19.1-21.4-31.6c-2.6-12.5-0.4-26,7.2-37.5C898,164.6,909.5,157.2,922,154.6z"/>
	</g>
	<g>
		<g>
			<path fill="#FFFFFF" d="M98,399.8v-23.9c0-1.1-0.9-2-2-2H84.2c-1.1,0-2,0.9-2,2v23.9c0,1.1,0.9,2,2,2h11.8
				C97.1,401.9,98,401,98,399.8L98,399.8z M94.6,375.2c0.3,0,0.5,0.2,0.5,0.5c0,0.3-0.2,0.5-0.5,0.5c-0.3,0-0.5-0.2-0.5-0.5
				C94.1,375.4,94.3,375.2,94.6,375.2L94.6,375.2z M87.3,375.4h5.5v0.6h-5.5V375.4z M83.7,395.4v-18.1h12.8v18.1H83.7z M90,399.9
				c-0.7,0-1.3-0.6-1.3-1.3c0-0.7,0.6-1.3,1.3-1.3c0.7,0,1.3,0.6,1.3,1.3C91.3,399.3,90.8,399.9,90,399.9L90,399.9z M90,399.9"/>
		</g>
		<g>
			<path fill="#FFFFFF" d="M113.2,390.6h2.6v-12h-15.2v2.6h12.6V390.6z M113.2,390.6"/>
		</g>
		<g>
			<path fill="#FFFFFF" d="M90.8,403.6h-2.6v8.7h10.3v-2.6h-7.8V403.6z M90.8,403.6"/>
		</g>
		<g>
			<path fill="#FFFFFF" d="M125,392h-24.2v19.4h10.3l0,4.2l-2.6,0v1H119v-1l-2.6,0v-4.2h10.4V392H125z M125.3,409.7h-22.7v-15.9
				h22.7V409.7z M125.3,409.7"/>
		</g>
	</g>
	<g>
		<g>
			<polygon fill="#FFFFFF" points="238.9,147.2 231.3,147.2 227.5,152.3 227.5,154.8 242.7,154.8 242.7,152.3 			"/>
		</g>
		<g>
			<path fill="#FFFFFF" d="M251.3,139.8h-32.4v-19.6h32.4V139.8z M235.3,144.1c-0.7,0-1.3-0.6-1.3-1.3c0-0.8,0.6-1.4,1.3-1.4
				c0.7,0,1.4,0.6,1.4,1.4C236.6,143.4,236,144.1,235.3,144.1 M235.3,144.9c-1.2,0-2.2-1-2.2-2.2c0-1.2,1-2.2,2.2-2.2
				c1.2,0,2.2,1,2.2,2.2C237.4,143.9,236.5,144.9,235.3,144.9 M251.5,117.5h-32.7c-1.4,0-2.5,1.1-2.5,2.5v23.3
				c0,1.4,1.1,2.5,2.5,2.5h32.7c1.4,0,2.5-1.1,2.5-2.5V120C254,118.6,252.9,117.5,251.5,117.5"/>
		</g>
	</g>
	<g>
		<path fill-rule="evenodd" clip-rule="evenodd" fill="#FFFFFF" d="M533.2,67.8c-0.2,8.3,2.9,15.9,8.2,21.5c5.3,5.6,12.7,9.1,21,9.4
			c8.3,0.2,15.9-2.9,21.5-8.2c5.6-5.3,9.1-12.7,9.4-21c0.2-8.3-2.9-15.9-8.2-21.5c-5.3-5.6-12.7-9.1-21-9.4
			c-8.3-0.2-15.9,2.9-21.5,8.2C537,52.1,533.4,59.5,533.2,67.8L533.2,67.8z M564.2,32.7c9.9,0.3,18.8,4.5,25.1,11.2
			c6.3,6.7,10.1,15.8,9.8,25.7c-0.3,9.9-4.5,18.8-11.2,25.1c-6.7,6.3-15.8,10.1-25.7,9.8c-9.9-0.3-18.8-4.5-25.1-11.2
			c-6.3-6.7-10.1-15.8-9.8-25.7c0.3-9.9,4.5-18.8,11.2-25.1C545.2,36.2,554.3,32.4,564.2,32.7z"/>
	</g>
	<g>
		<g>
			<polygon fill="#FFFFFF" points="566.8,81.2 559.2,81.2 555.3,86.3 555.3,88.9 570.7,88.9 570.7,86.3 			"/>
		</g>
		<g>
			<path fill="#FFFFFF" d="M579.3,73.7h-32.6V54h32.6V73.7z M563.2,78c-0.8,0-1.4-0.6-1.4-1.4c0-0.8,0.6-1.4,1.4-1.4
				c0.8,0,1.4,0.6,1.4,1.4C564.5,77.4,563.9,78,563.2,78 M563.2,78.9c-1.2,0-2.2-1-2.2-2.2c0-1.2,1-2.2,2.2-2.2c1.2,0,2.2,1,2.2,2.2
				C565.3,77.9,564.4,78.9,563.2,78.9 M579.5,51.2h-33c-1.4,0-2.5,1.1-2.5,2.6v23.4c0,1.4,1.1,2.6,2.5,2.6h33c1.4,0,2.5-1.1,2.5-2.6
				V53.8C582,52.4,580.9,51.2,579.5,51.2"/>
		</g>
	</g>
	<g>
		<path fill="#FFFFFF" d="M386.8,331.4l-1.3,0c-0.3,0-0.3-0.3-0.4-0.5c-0.1-0.5-0.4-1-0.8-1.3l-5.6-4.6c-0.5-0.4-1.3-0.7-1.9-0.7
			h-8.9c-0.8,0-1.4,0.6-1.4,1.4v5.2c0,0,0,0.5-0.4,0.5H365c-0.8,0-1.4,0.6-1.4,1.4v28.8c0,0.8,0.6,1.4,1.4,1.4h21.8
			c0.8,0,1.4-0.6,1.4-1.4v-28.8C388.3,332,387.6,331.4,386.8,331.4L386.8,331.4z M378.3,326.3c0-0.2,0.2-0.1,0.2-0.1l4.6,4
			c0,0,0.2,0.2-0.1,0.2h-4.4c-0.2,0-0.4-0.2-0.4-0.4C378.3,330.1,378.3,327.3,378.3,326.3L378.3,326.3z M367.5,325.7
			c0-0.2,0.2-0.4,0.4-0.4h8.9c0.3,0,0.5,0.2,0.5,0.4v4.3c0,0.8,0.6,1.4,1.4,1.4h5.2c0.3,0,0.3,0.2,0.3,0.2v8c0,0.3-0.2,0.2-0.3,0.2
			h-16.1c-0.1,0-0.2,0-0.2-0.2V325.7z M371.8,358.9c0,0.5-0.4,0.9-0.9,0.9h-3.1c-0.5,0-0.9-0.4-0.9-0.9v-2.6c0-0.5,0.4-0.9,0.9-0.9
			h3.1c0.5,0,0.9,0.4,0.9,0.9V358.9z M371.8,353.2c0,0.5-0.4,0.9-0.9,0.9h-3.1c-0.5,0-0.9-0.4-0.9-0.9v-2.6c0-0.5,0.4-0.9,0.9-0.9
			h3.1c0.5,0,0.9,0.4,0.9,0.9V353.2z M371.8,347.6c0,0.5-0.4,0.9-0.9,0.9h-3.1c-0.5,0-0.9-0.4-0.9-0.9V345c0-0.5,0.4-0.9,0.9-0.9
			h3.1c0.5,0,0.9,0.4,0.9,0.9V347.6z M378.3,358.9c0,0.5-0.4,0.9-0.9,0.9h-3.1c-0.5,0-0.9-0.4-0.9-0.9v-2.6c0-0.5,0.4-0.9,0.9-0.9
			h3.1c0.5,0,0.9,0.4,0.9,0.9V358.9z M378.3,353.2c0,0.5-0.4,0.9-0.9,0.9h-3.1c-0.5,0-0.9-0.4-0.9-0.9v-2.6c0-0.5,0.4-0.9,0.9-0.9
			h3.1c0.5,0,0.9,0.4,0.9,0.9V353.2z M378.3,347.6c0,0.5-0.4,0.9-0.9,0.9h-3.1c-0.5,0-0.9-0.4-0.9-0.9V345c0-0.5,0.4-0.9,0.9-0.9
			h3.1c0.5,0,0.9,0.4,0.9,0.9V347.6z M384.9,358.9c0,0.5-0.4,0.9-0.9,0.9h-3.1c-0.5,0-0.9-0.4-0.9-0.9v-2.6c0-0.5,0.4-0.9,0.9-0.9
			h3.1c0.5,0,0.9,0.4,0.9,0.9V358.9z M384.9,353.2c0,0.5-0.4,0.9-0.9,0.9h-3.1c-0.5,0-0.9-0.4-0.9-0.9v-2.6c0-0.5,0.4-0.9,0.9-0.9
			h3.1c0.5,0,0.9,0.4,0.9,0.9V353.2z M384.9,347.6c0,0.5-0.4,0.9-0.9,0.9h-3.1c-0.5,0-0.9-0.4-0.9-0.9V345c0-0.5,0.4-0.9,0.9-0.9
			h3.1c0.5,0,0.9,0.4,0.9,0.9V347.6z M384.9,347.6"/>
	</g>
	<g>
		<g>
			<path fill="#FFFFFF" d="M924.8,216.8c-0.1,0-0.2,0-0.4,0c-8,0-12.9-2.6-12.9-4.1c0-0.3,0.3-0.8,0.8-1.2c3.2,1.5,7.8,2.3,12.1,2.3
				c0.1,0,0.3,0,0.4,0V207c-0.1,0-0.2,0-0.4,0c-8,0-12.9-2.6-12.9-4.1c0-0.3,0.3-0.8,0.8-1.2c3.2,1.5,7.8,2.3,12.1,2.3
				c0.3,0,0.6,0,0.9,0c0.6-0.9,1.6-1.5,2.7-1.5h6.4c0.7-0.2,1.4-0.5,2.1-0.8c0.4,0.3,0.6,0.6,0.7,0.8h3.7c-0.1-1.1-0.6-2-1.4-2.9
				c0.7-0.7,1.2-1.6,1.4-2.5l0-4.1c0-1.2-0.5-2.3-1.4-3.3c0.7-0.7,1.2-1.6,1.4-2.5l0-4.1c0-5-8.5-7.7-16.6-7.7
				c-8,0-16.6,2.7-16.6,7.7l0,4l0,0.1c0.2,0.9,0.7,1.7,1.4,2.5c-0.9,0.9-1.4,2-1.4,3.3l0,4l0,0.1c0.2,0.9,0.7,1.8,1.4,2.5
				c-0.9,0.9-1.4,2-1.4,3.3l0,4l0,0.1c0.2,0.9,0.7,1.8,1.4,2.5c-0.9,0.9-1.4,2-1.4,3.3l0,4l0,0.1c0.9,4.4,8.5,6.7,15.8,6.9
				c0.3-0.3,0.7-0.6,1.1-0.8V216.8z M924.4,179.2c8,0,12.9,2.6,12.9,4.1c0,1.4-4.9,4.1-12.9,4.1c-8,0-12.9-2.6-12.9-4.1
				C911.5,181.9,916.4,179.2,924.4,179.2L924.4,179.2z M912.3,191.9c3.2,1.5,7.8,2.3,12.1,2.3c4.3,0,8.8-0.8,12.1-2.3
				c0.5,0.4,0.8,0.8,0.8,1.2c0,1.4-4.9,4.1-12.9,4.1c-8,0-12.9-2.6-12.9-4.1C911.5,192.8,911.8,192.4,912.3,191.9L912.3,191.9z
				 M912.3,191.9"/>
		</g>
		<g>
			<path fill="#FFFFFF" d="M959.3,224.1l-0.6-0.1v-18.5c0-0.8-0.6-1.4-1.4-1.4h-29.4c-0.8,0-1.4,0.6-1.4,1.4V224l-0.5,0.1
				c-1,0.2-1.7,1.1-1.7,2.1c0,1.2,1,2.2,2.2,2.2h32.3c1.2,0,2.2-1,2.2-2.2C961,225.3,960.3,224.4,959.3,224.1L959.3,224.1z
				 M955.3,224.3h-25.5v-17.1h25.5V224.3z"/>
		</g>
		<g>
			<path fill="#FFFFFF" d="M955.3,224.3"/>
		</g>
	</g>
	<g>
		<g>
			<path fill="#FFFFFF" d="M783.8,466.1H802c0.4,0,0.7-0.3,0.7-0.7v-8.8c0-0.4-0.3-0.7-0.7-0.7h-18.3c-0.4,0-0.7,0.3-0.7,0.7v8.8
				C783,465.8,783.3,466.1,783.8,466.1"/>
		</g>
		<g>
			<path fill="#FFFFFF" d="M804.9,455.8c-0.4,0-0.7,0.3-0.7,0.7v8.8c0,0.4,0.3,0.7,0.7,0.7H824c0.4,0,0.7-0.3,0.7-0.7v-8.8
				c0-0.4-0.3-0.7-0.7-0.7H804.9z"/>
		</g>
		<g>
			<path fill="#FFFFFF" d="M791.1,467.9h-7.3c-0.4,0-0.7,0.3-0.7,0.7v8.8c0,0.4,0.3,0.7,0.7,0.7h7.3c0.4,0,0.7-0.3,0.7-0.7v-8.8
				C791.8,468.2,791.5,467.9,791.1,467.9"/>
		</g>
		<g>
			<path fill="#FFFFFF" d="M813,467.9H794c-0.4,0-0.7,0.3-0.7,0.7v8.8c0,0.4,0.3,0.7,0.7,0.7H813c0.4,0,0.7-0.3,0.7-0.7v-8.8
				C813.8,468.2,813.4,467.9,813,467.9"/>
		</g>
		<g>
			<path fill="#FFFFFF" d="M834.2,467.9h-18.3c-0.4,0-0.7,0.3-0.7,0.7v8.8c0,0.4,0.3,0.7,0.7,0.7h18.3c0.4,0,0.7-0.3,0.7-0.7v-8.8
				C834.9,468.2,834.6,467.9,834.2,467.9"/>
		</g>
		<g>
			<path fill="#FFFFFF" d="M793.6,453.7h12.3c0.3,0,0.6-0.2,0.7-0.5c0.1-0.3,0-0.6-0.2-0.8c-2.1-1.7-2.9-4.5-2.4-7.4
				c0.4-2.1,1.6-3.9,3.1-4.9c-0.2,1.5,0,3,0.8,4.1c0.8,1.1,2,1.7,3.3,1.7c0.9,0,1.7-0.3,2.6-0.7c0.2,0.5,0.4,1.3,0.4,2.2
				c0.1,2-0.5,3.6-1.9,5c-0.2,0.2-0.3,0.5-0.2,0.8c0.1,0.3,0.4,0.5,0.7,0.5h12.8c0.2,0,0.4-0.1,0.5-0.2c3.1-3.1,4.6-6.3,4.5-9.8
				c-0.1-5.4-4.1-9.1-4.2-9.3c-0.3-0.2-0.7-0.3-1,0c-1.6,1.3-3,1.9-4.2,1.9c-2.5,0-4.1-2.9-6-6.3c-2.6-4.7-5.9-10.6-13.2-10.6
				c-0.4,0-0.9,0-1.3,0.1c-0.3,0-0.5,0.2-0.6,0.5c-0.1,0.3-0.1,0.5,0.1,0.8c3.7,4.5,4.2,9.2,3,11.9c-0.8,1.7-2.3,2.7-4.3,2.7
				c-1.4,0-2.3-0.3-2.7-1c-0.9-1.4,0.1-4.2,0.6-5.2c0.1-0.3,0.1-0.6-0.2-0.9c-0.2-0.2-0.6-0.3-0.9-0.1c-4.9,2.8-7.6,6.4-8.2,10.6
				c-1.1,7.6,5.4,14.5,5.6,14.8C793.2,453.6,793.4,453.7,793.6,453.7"/>
		</g>
		<g>
			<path fill="#FFFFFF" d="M833.8,455.7h-7.3c-0.4,0-0.7,0.3-0.7,0.7v8.8c0,0.4,0.3,0.7,0.7,0.7h7.3c0.4,0,0.7-0.3,0.7-0.7v-8.8
				C834.6,456.1,834.2,455.7,833.8,455.7"/>
		</g>
	</g>
	<g>
		<g>
			<path fill="#FFFFFF" d="M972.7,367.6c-0.8-11.8-10.2-21.3-22.1-22.1v0h-3.1v0c-11.8,0.8-21.3,10.2-22.1,22.1h0v3.1h0
				c0.8,11.8,10.2,21.3,22.1,22.1v0.1h3.1v-0.1c11.8-0.8,21.3-10.2,22.1-22.1h0.1L972.7,367.6L972.7,367.6z M940.2,350.7
				c-1.5,2-2.8,4.6-3.7,7.5h-4.7C933.8,354.9,936.7,352.3,940.2,350.7L940.2,350.7z M930.1,361.3h5.6c-0.4,2-0.7,4.1-0.8,6.3h-6.3
				C928.7,365.4,929.3,363.3,930.1,361.3L930.1,361.3z M928.6,370.8h6.3c0.1,2.2,0.4,4.3,0.8,6.3h-5.6
				C929.3,375.1,928.7,373,928.6,370.8L928.6,370.8z M931.7,380.3h4.7c0.9,2.9,2.2,5.5,3.7,7.5C936.7,386.1,933.8,383.5,931.7,380.3
				L931.7,380.3z M947.5,389.5c-3.3-0.9-6.1-4.4-7.7-9.3h7.7V389.5z M947.5,377.1h-8.6c-0.4-2-0.7-4.1-0.8-6.3h9.5V377.1z
				 M947.5,367.6H938c0.1-2.2,0.4-4.4,0.8-6.3h8.6V367.6z M947.5,358.1h-7.7c1.7-4.9,4.5-8.4,7.7-9.3V358.1z M966.4,358.1h-4.7
				c-0.9-2.9-2.2-5.5-3.7-7.5C961.4,352.3,964.3,354.9,966.4,358.1L966.4,358.1z M950.6,348.9c3.3,0.9,6.1,4.4,7.7,9.3h-7.7V348.9z
				 M950.6,361.3h8.6c0.4,2,0.7,4.1,0.8,6.3h-9.5V361.3z M950.6,370.8h9.5c-0.1,2.2-0.4,4.4-0.8,6.3h-8.6V370.8z M950.6,389.5v-9.3
				h7.7C956.7,385.2,953.9,388.7,950.6,389.5L950.6,389.5z M957.9,387.7c1.5-2,2.8-4.6,3.7-7.5h4.7
				C964.3,383.5,961.4,386.1,957.9,387.7L957.9,387.7z M968,377.1h-5.6c0.4-2,0.7-4.1,0.8-6.3h6.3C969.4,373,968.9,375.1,968,377.1
				L968,377.1z M963.3,367.6c-0.1-2.2-0.4-4.3-0.8-6.3h5.6c0.8,2,1.3,4.1,1.5,6.3H963.3z M963.3,367.6"/>
		</g>
	</g>
	<g>
		<g>
			<path fill="#FFFFFF" d="M768.7,296.2c-16,0-28.9-5.2-28.9-11.6v18.8h0.1c0,6.9,12.9,12.4,28.8,12.4c15.9,0,28.8-5.6,28.8-12.4
				h0.1v-18.8C797.5,291,784.6,296.2,768.7,296.2L768.7,296.2z M768.7,296.2"/>
		</g>
		<g>
			<path fill="#FFFFFF" d="M797.5,282.5c0,6.4-12.9,11.6-28.9,11.6c-16,0-28.9-5.2-28.9-11.6c0-6.4,12.9-11.6,28.9-11.6
				C784.6,270.9,797.5,276.1,797.5,282.5L797.5,282.5z M797.5,282.5"/>
		</g>
	</g>
	<g>
		<g>
			<g>
				<g>
					<polygon fill="#FFFFFF" points="759.6,280.4 747.2,277.4 747.9,276.5 760.3,279.5 					"/>
				</g>
			</g>
			<g>
				<g>
					<g>
						<path fill="#FFFFFF" d="M759.3,279.8c-1-1.4-0.3-3.6,0.6-5c1,2.4,2.9,4.8,6,6.6c-4.5-0.1-8.7,0.9-12.7,2.1
							C754.6,282.1,756.6,280.4,759.3,279.8z"/>
					</g>
				</g>
			</g>
		</g>
		<g>
			<g>
				<g>
					<polygon fill="#FFFFFF" points="788.5,290.2 773.3,284.9 774,283.8 789.2,289 					"/>
				</g>
			</g>
			<g>
				<g>
					<g>
						<path fill="#FFFFFF" d="M774,284.4c0.6,1.4,0.1,3.6-0.6,5c-0.6-2.4-1.8-4.8-3.8-6.7c2.9,0.1,5.7-0.8,8.3-1.9
							C777.1,282.2,775.8,283.8,774,284.4z"/>
					</g>
				</g>
			</g>
		</g>
		<g>
			<g>
				<g>
					<polygon fill="#FFFFFF" points="760.7,289.7 759.9,289.1 766.6,282.7 767.5,283.3 					"/>
				</g>
			</g>
			<g>
				<g>
					<g>
						<path fill="#FFFFFF" d="M760.6,289.1c1.7-0.2,3.8,0.6,5.1,1.4c-2.7-0.1-5.6,0.3-8.1,1.4c0.9-2.1,0.7-4.4,0.2-6.5
							C759.1,286.4,760.4,287.7,760.6,289.1z"/>
					</g>
				</g>
			</g>
		</g>
		<g>
			<g>
				<g>
					<polygon fill="#FFFFFF" points="768.8,282 767.9,281.4 773.6,275.2 774.5,275.8 					"/>
				</g>
			</g>
			<g>
				<g>
					<g>
						<path fill="#FFFFFF" d="M773.7,275.8c-1.8,0.2-4.1-0.8-5.5-1.7c2.9,0.1,5.9-0.3,8.4-1.6c-0.8,2.4-0.5,5,0.1,7.5
							C775.5,279,774,277.5,773.7,275.8z"/>
					</g>
				</g>
			</g>
		</g>
	</g>
	<g>
		<g>
			<g>
				<path fill="#FFFFFF" d="M472.5,483.3c-16,0-28.9-5.2-28.9-11.6v18.8h0.1c0,6.9,12.9,12.4,28.8,12.4c15.9,0,28.8-5.6,28.8-12.4
					h0.1v-18.8C501.4,478.1,488.4,483.3,472.5,483.3L472.5,483.3z"/>
			</g>
			<g>
				<path fill="#FFFFFF" d="M472.5,483.3"/>
			</g>
		</g>
		<g>
			<g>
				<path fill="#FFFFFF" d="M501.4,469.6c0,6.4-12.9,11.6-28.9,11.6c-16,0-28.9-5.2-28.9-11.6c0-6.4,12.9-11.6,28.9-11.6
					C488.4,458,501.4,463.2,501.4,469.6L501.4,469.6z"/>
			</g>
			<g>
				<path fill="#FFFFFF" d="M501.4,469.6"/>
			</g>
		</g>
	</g>
	<g>
		<g>
			<g>
				<g>
					<polygon fill="#FFFFFF" points="463.4,467.5 451,464.5 451.8,463.5 464.1,466.5 					"/>
				</g>
			</g>
			<g>
				<g>
					<g>
						<path fill="#FFFFFF" d="M463.1,466.9c-1-1.4-0.3-3.6,0.6-5c1,2.4,2.9,4.8,6,6.6c-4.5-0.1-8.7,0.9-12.7,2.1
							C458.4,469.1,460.4,467.5,463.1,466.9z"/>
					</g>
				</g>
			</g>
		</g>
		<g>
			<g>
				<g>
					<polygon fill="#FFFFFF" points="492.3,477.2 477.2,472 477.8,470.9 493,476.1 					"/>
				</g>
			</g>
			<g>
				<g>
					<g>
						<path fill="#FFFFFF" d="M477.8,471.5c0.6,1.4,0.1,3.6-0.6,5c-0.6-2.4-1.8-4.8-3.8-6.7c2.9,0.1,5.7-0.8,8.3-1.9
							C481,469.3,479.6,470.9,477.8,471.5z"/>
					</g>
				</g>
			</g>
		</g>
		<g>
			<g>
				<g>
					<polygon fill="#FFFFFF" points="464.6,476.7 463.7,476.2 470.5,469.8 471.3,470.3 					"/>
				</g>
			</g>
			<g>
				<g>
					<g>
						<path fill="#FFFFFF" d="M464.4,476.2c1.7-0.2,3.8,0.6,5.1,1.4c-2.7-0.1-5.6,0.3-8.1,1.4c0.9-2.1,0.7-4.4,0.2-6.5
							C463,473.5,464.3,474.8,464.4,476.2z"/>
					</g>
				</g>
			</g>
		</g>
		<g>
			<g>
				<g>
					<polygon fill="#FFFFFF" points="472.6,469.1 471.7,468.4 477.4,462.2 478.3,462.9 					"/>
				</g>
			</g>
			<g>
				<g>
					<g>
						<path fill="#FFFFFF" d="M477.6,462.9c-1.8,0.2-4.1-0.8-5.5-1.7c2.9,0.1,5.9-0.3,8.4-1.6c-0.8,2.4-0.5,5,0.1,7.5
							C479.3,466,477.8,464.5,477.6,462.9z"/>
					</g>
				</g>
			</g>
		</g>
	</g>
	<g>
		<g>
			<path fill="#FFFFFF" d="M579.7,363h-3.6v-3.4c0-1-0.8-1.8-1.8-1.8h-17.6c-1,0-1.8,0.8-1.8,1.8v3.4h-3.6c-2.3,0-4.2,1.9-4.2,4.2
				v43c0,2.3,1.9,4.2,4.2,4.2h28.5c2.3,0,4.2-1.9,4.2-4.2v-43C584,364.9,582.1,363,579.7,363L579.7,363z M570.3,367.2v-5.8h2.1v9.9
				h-2.1V367.2z M558.5,367.2v-5.8h6.7v9.9h-6.7V367.2z M559.6,409.5c0,1-0.8,1.8-1.8,1.8h-2.9c-1,0-1.8-0.8-1.8-1.8v-3.1
				c0-1,0.8-1.8,1.8-1.8h2.9c1,0,1.8,0.8,1.8,1.8V409.5z M559.6,400.3c0,1-0.8,1.8-1.8,1.8h-2.9c-1,0-1.8-0.8-1.8-1.8v-3.1
				c0-1,0.8-1.8,1.8-1.8h2.9c1,0,1.8,0.8,1.8,1.8V400.3z M559.6,391.1c0,1-0.8,1.8-1.8,1.8h-2.9c-1,0-1.8-0.8-1.8-1.8V388
				c0-1,0.8-1.8,1.8-1.8h2.9c1,0,1.8,0.8,1.8,1.8V391.1z M568.7,409.5c0,1-0.8,1.8-1.8,1.8H564c-1,0-1.8-0.8-1.8-1.8v-3.1
				c0-1,0.8-1.8,1.8-1.8h2.9c1,0,1.8,0.8,1.8,1.8V409.5z M568.7,400.3c0,1-0.8,1.8-1.8,1.8H564c-1,0-1.8-0.8-1.8-1.8v-3.1
				c0-1,0.8-1.8,1.8-1.8h2.9c1,0,1.8,0.8,1.8,1.8V400.3z M568.7,391.1c0,1-0.8,1.8-1.8,1.8H564c-1,0-1.8-0.8-1.8-1.8V388
				c0-1,0.8-1.8,1.8-1.8h2.9c1,0,1.8,0.8,1.8,1.8V391.1z M577.9,409.5c0,1-0.8,1.8-1.8,1.8h-2.9c-1,0-1.8-0.8-1.8-1.8v-3.1
				c0-1,0.8-1.8,1.8-1.8h2.9c1,0,1.8,0.8,1.8,1.8V409.5z M577.9,400.3c0,1-0.8,1.8-1.8,1.8h-2.9c-1,0-1.8-0.8-1.8-1.8v-3.1
				c0-1,0.8-1.8,1.8-1.8h2.9c1,0,1.8,0.8,1.8,1.8V400.3z M577.9,391.1c0,1-0.8,1.8-1.8,1.8h-2.9c-1,0-1.8-0.8-1.8-1.8V388
				c0-1,0.8-1.8,1.8-1.8h2.9c1,0,1.8,0.8,1.8,1.8V391.1z M577.9,380.5c0,1.7-1.4,3.1-3.1,3.1h-18.7c-1.7,0-3.1-1.4-3.1-3.1v-3.2
				c0-1.7,1.4-3.1,3.1-3.1h18.7c1.7,0,3.1,1.4,3.1,3.1V380.5z M577.9,380.5"/>
		</g>
	</g>
	<g>
		<path fill="#FFFFFF" d="M84.6,262.4c3.8,3,8.7,3.8,13.2,5.3c4.5,1.5,8.5,2.7,13.2,2.7c1,0,2,0,3,0c0.2-0.1,0.4-0.2,0.6-0.3
			c3.6-1.4,7.2-2.1,10.6-3.8c2.9-1.5,5.7-3,8.6-4.5v-3c-0.1-0.7-0.2-1.5-0.2-2.3c-0.1-1.2-0.2-2.5-0.1-3.7v-1.6
			c0-5.8-6.7-7.9-10.3-9.4c-1.3-0.6-3.7-1.7-6.3-3c-0.9-0.4-1.6-1.5-1.7-2.5l-0.3-2.7c1.9-1.8,3.7-4.3,3.9-7.1h0.4
			c0.7,0,1.3-0.5,1.4-1.1l0.7-4.2c0.1-0.9-0.8-1.4-1.4-1.4c0-0.1,0-0.2,0-0.3c0.1-0.5,0.1-1,0.2-1.5c0-0.4,0.1-0.8,0.1-1.2
			c0.1-2-0.3-3.7-0.8-4.7c-0.6-1.4-1.4-2.7-2.6-3.8c-3.3-3.1-7.2-4.4-10.5-1.8c-2.2-0.4-4.9,0.6-6.8,2.9c-1,1.2-1.7,2.6-2,4
			c-0.3,0.9-0.4,1.9-0.5,3c-0.1,1.3,0.1,2.4,0.3,3.3c-0.7,0-1.3,0.6-1.3,1.4l0.7,4.2c0.1,0.6,0.7,1.1,1.4,1.1h0.4
			c0.6,3,2.2,5.5,4,7.2l-0.3,2.6c-0.1,0.9-0.9,2-1.7,2.5c-2.4,1.2-4.8,2.3-6.3,2.9c-3.4,1.4-10.3,3.6-10.3,9.4v1.3
			c0,0.2,0.1,0.4,0.1,0.6c0,2.4,0,4.8-0.1,7.2c0,0.2-0.1,0.5-0.1,0.7c0,0.4,0,0.7,0,1.1C84.2,262.1,84.4,262.2,84.6,262.4"/>
	</g>
	<g>
		<g>
			<path fill-rule="evenodd" clip-rule="evenodd" fill="#FFFFFF" d="M853.6,85.6c-0.1-2.1-1-4.1-2.4-5.4c-1.4-1.4-3.4-2.2-5.6-2.1
				c-2.1,0.1-4.1,1-5.4,2.4c-1.4,1.4-2.2,3.4-2.1,5.6l0,0c0.1,2.2,1,4.1,2.4,5.4c1.4,1.4,3.4,2.2,5.6,2.1v0c2.2-0.1,4.1-1,5.4-2.4
				C852.9,89.7,853.7,87.7,853.6,85.6L853.6,85.6z M853.1,78.1c2,1.9,3.2,4.5,3.3,7.4c0.1,2.9-1,5.6-2.9,7.6c-1.9,2-4.5,3.2-7.4,3.3
				h0c-2.9,0.1-5.6-1-7.6-2.9c-2-1.9-3.2-4.5-3.3-7.4v0c-0.1-2.9,1-5.6,2.9-7.6c1.9-2,4.5-3.2,7.4-3.3
				C848.5,75.1,851.2,76.2,853.1,78.1z"/>
		</g>
		<g>
			<polygon fill="#FFFFFF" points="861.7,82.9 854.9,82.9 854.9,88.5 861.7,88.5 861.7,93.8 869.8,85.7 861.7,77.6 			"/>
		</g>
		<g>
			<polygon fill="#FFFFFF" points="843,70 843,76.8 848.5,76.8 848.5,70 853.8,70 845.8,61.9 837.7,70 			"/>
		</g>
		<g>
			<polygon fill="#FFFFFF" points="830.2,88.5 836.9,88.5 836.9,83 830.2,83 830.2,77.7 822.1,85.7 830.2,93.8 			"/>
		</g>
		<g>
			<rect x="844" y="94" fill="#FFFFFF" width="4" height="8"/>
		</g>
		<g>
			<circle fill="#FFFFFF" cx="845.9" cy="107.4" r="6"/>
		</g>
	</g>
	<g>
		<g>
			<g>
				<path fill="#FFFFFF" d="M429.4,478.7c-0.2,0-0.5,0-0.7-0.1l-288.6-79.2c-1.5-0.4-2.3-1.9-1.9-3.4c0.4-1.5,1.9-2.3,3.3-1.9
					l288.6,79.2c1.5,0.4,2.3,1.9,1.9,3.4C431.7,477.9,430.6,478.7,429.4,478.7z"/>
			</g>
		</g>
		<g>
			<g>
				<path fill="#FFFFFF" d="M129.2,369.4c-0.8,0-1.6-0.4-2.2-1.1c-0.9-1.2-0.7-2.9,0.5-3.9l51.3-39.6c1.2-0.9,2.9-0.7,3.9,0.5
					c0.9,1.2,0.7,2.9-0.5,3.9l-51.3,39.6C130.4,369.2,129.8,369.4,129.2,369.4z"/>
			</g>
		</g>
		<g>
			<g>
				<path fill="#FFFFFF" d="M338.8,140h-70.6c-1.5,0-2.8-1-2.8-2.5s1.2-2.5,2.8-2.5h70.6c1.5,0,2.8,1,2.8,2.5S340.3,140,338.8,140z"
					/>
			</g>
		</g>
		<g>
			<g>
				<path fill="#FFFFFF" d="M494.8,191.3c-0.4,0-0.9-0.1-1.3-0.3l-90.1-46.6c-1.3-0.7-1.9-2.4-1.2-3.7c0.7-1.3,2.4-1.9,3.7-1.2
					l90.1,46.6c1.3,0.7,1.9,2.4,1.2,3.7C496.7,190.8,495.7,191.3,494.8,191.3z"/>
			</g>
		</g>
		<g>
			<g>
				<path fill="#FFFFFF" d="M485.5,443.9c-0.3,0-0.5,0-0.8-0.1c-1.5-0.4-2.3-2-1.8-3.4l47.6-157.5c0.4-1.5,2-2.3,3.4-1.8
					c1.5,0.4,2.3,2,1.8,3.4L488.1,442C487.8,443.2,486.7,443.9,485.5,443.9z"/>
			</g>
		</g>
		<g>
			<g>
				<path fill="#FFFFFF" d="M289.9,268.4c-1.3,0-2.5-0.9-2.7-2.2c-0.3-1.5,0.7-2.9,2.2-3.2l192.9-36.5c1.5-0.3,2.9,0.7,3.2,2.2
					c0.3,1.5-0.7,2.9-2.2,3.2l-192.9,36.5C290.2,268.4,290.1,268.4,289.9,268.4z"/>
			</g>
		</g>
		<g>
			<g>
				<path fill="#FFFFFF" d="M564,346.9c-1.3,0-2.4-0.8-2.7-2l-13-57.5c-0.3-1.4,0.6-2.7,2.1-3c1.5-0.3,2.9,0.6,3.3,2l13,57.5
					c0.3,1.4-0.6,2.7-2.1,3C564.4,346.9,564.2,346.9,564,346.9z"/>
			</g>
		</g>
		<g>
			<g>
				<path fill="#FFFFFF" d="M336.9,323.7c-0.3,0-0.6-0.1-1-0.2L290,306.3c-1.4-0.5-2.1-2.1-1.6-3.5c0.5-1.4,2.1-2.1,3.5-1.6
					l45.9,17.2c1.4,0.5,2.1,2.1,1.6,3.5C339,323,338,323.7,336.9,323.7z"/>
			</g>
		</g>
		<g>
			<g>
				<path fill="#FFFFFF" d="M170.4,260c-0.3,0-0.7-0.1-1-0.2l-23.3-9.5c-1.4-0.6-2.1-2.2-1.5-3.6c0.6-1.4,2.2-2.1,3.6-1.5l23.3,9.5
					c1.4,0.6,2.1,2.2,1.5,3.6C172.5,259.3,171.5,260,170.4,260z"/>
			</g>
		</g>
	</g>
	<g>
		<path fill-rule="evenodd" clip-rule="evenodd" fill="#FFFFFF" d="M387.7,315.1c-7.6-5-16.4-6.4-24.6-4.7
			c-8.2,1.7-15.8,6.5-20.8,14.1c-5,7.6-6.4,16.4-4.7,24.6c1.7,8.2,6.5,15.8,14.1,20.8c7.6,5,16.4,6.4,24.6,4.7
			c8.2-1.7,15.8-6.5,20.8-14.1c5-7.6,6.4-16.4,4.7-24.6C400.1,327.7,395.3,320.1,387.7,315.1L387.7,315.1z M361.7,304.1
			c9.8-2,20.5-0.3,29.5,5.7c9,6,14.8,15,16.9,24.9c2,9.8,0.3,20.5-5.7,29.5c-6,9.1-15,14.8-24.9,16.9c-9.8,2-20.5,0.3-29.5-5.7
			c-9-6-14.8-15-16.9-24.9c-2-9.8-0.3-20.5,5.7-29.5C342.8,311.9,351.9,306.1,361.7,304.1z"/>
	</g>
	<g>
		<g>
			<path fill-rule="evenodd" clip-rule="evenodd" fill="#FFFFFF" d="M369.2,55.5c3,1.5,4.3,5.1,2.9,8.1c-1.5,3-5.1,4.3-8.1,2.9
				c-3-1.5-4.3-5.1-2.9-8.1C362.5,55.3,366.2,54,369.2,55.5z"/>
		</g>
		<g>
			<path fill-rule="evenodd" clip-rule="evenodd" fill="#FFFFFF" d="M404.5,57.1l-31.9,4.2c0-0.7-0.1-1.4-0.3-2.1l31.9-4.2
				C404.3,55.7,404.4,56.4,404.5,57.1z"/>
		</g>
		<g>
			<path fill-rule="evenodd" clip-rule="evenodd" fill="#FFFFFF" d="M439.7,47.3c-0.9-4.5-3.6-8.2-7.2-10.6
				c-3.6-2.3-8.1-3.3-12.6-2.4c-4.5,0.9-8.2,3.6-10.6,7.2c-2.3,3.6-3.3,8.1-2.4,12.6c0.9,4.5,3.6,8.2,7.2,10.6
				c3.6,2.3,8,3.3,12.5,2.4l0,0c4.5-0.9,8.2-3.6,10.6-7.2C439.6,56.3,440.6,51.9,439.7,47.3L439.7,47.3L439.7,47.3z M434.3,34
				c4.3,2.8,7.4,7.2,8.6,12.6l0,0l0,0.1c1.1,5.4-0.1,10.8-2.9,15c-2.8,4.3-7.2,7.4-12.6,8.6h0l-0.1,0c-5.4,1.1-10.8-0.1-15-2.9
				c-4.3-2.8-7.5-7.3-8.6-12.7c-1.1-5.4,0.1-10.8,2.9-15c2.8-4.3,7.3-7.5,12.7-8.6C424.7,30,430,31.2,434.3,34z"/>
		</g>
		<g>
			<g>
				<circle fill-rule="evenodd" clip-rule="evenodd" fill="#FFFFFF" cx="162.2" cy="184.2" r="8.4"/>
			</g>
			<g>
				<path fill-rule="evenodd" clip-rule="evenodd" fill="#FFFFFF" d="M209.3,157.8L168.9,179c0.6,0.8,1.1,1.6,1.4,2.6l40.4-21.2
					C210.1,159.5,209.7,158.7,209.3,157.8z"/>
			</g>
			<g>
				<path fill-rule="evenodd" clip-rule="evenodd" fill="#FFFFFF" d="M139,473.4c0.7-2.4,0.4-4.8-0.7-6.8c-1.1-2-2.9-3.6-5.3-4.3
					c-2.4-0.7-4.8-0.4-6.8,0.7c-2,1.1-3.6,2.9-4.3,5.3h0c-0.7,2.4-0.4,4.8,0.7,6.8c1.1,2,2.9,3.6,5.3,4.3l0,0
					c2.4,0.7,4.8,0.4,6.8-0.7C136.7,477.7,138.3,475.8,139,473.4L139,473.4z M141.1,465.1c1.5,2.7,1.9,6,0.9,9.3
					c-1,3.2-3.1,5.7-5.9,7.2c-2.7,1.5-6,1.9-9.3,0.9l0,0c-3.2-1-5.7-3.1-7.2-5.9c-1.5-2.7-1.9-6-0.9-9.3l0,0c1-3.2,3.1-5.7,5.9-7.2
					c2.7-1.5,6-1.9,9.3-0.9C137.1,460.2,139.7,462.4,141.1,465.1z"/>
			</g>
			<g>
				<path fill-rule="evenodd" clip-rule="evenodd" fill="#FFFFFF" d="M208.8,464.4c1-3.2-0.9-6.6-4.1-7.6c-3.2-1-6.6,0.9-7.6,4.1
					c-1,3.2,0.9,6.6,4.1,7.6C204.4,469.5,207.8,467.6,208.8,464.4z"/>
			</g>
			<g>
				<path fill-rule="evenodd" clip-rule="evenodd" fill="#FFFFFF" d="M110.1,430l14.2,30.3c0.1-0.1,0.2-0.1,0.3-0.2
					c0.5-0.3,1-0.5,1.6-0.7l-14.2-30.3C111.4,429.4,110.8,429.7,110.1,430z"/>
			</g>
			<g>
				<path fill-rule="evenodd" clip-rule="evenodd" fill="#FFFFFF" d="M127.6,421.7l69.5,39c0.2-0.7,0.6-1.3,1-1.9l-69.5-39
					C128.3,420.5,128,421.1,127.6,421.7z"/>
			</g>
			<g>
				<path fill-rule="evenodd" clip-rule="evenodd" fill="#FFFFFF" d="M138.7,74.3l69.5,39c0.2-0.7,0.6-1.3,1-1.9l-69.5-39
					C139.4,73,139.1,73.7,138.7,74.3z"/>
			</g>
			<g>
				<path fill-rule="evenodd" clip-rule="evenodd" fill="#FFFFFF" d="M451.9,99.2l-18.9-32.4c0.6-0.3,1.3-0.7,1.9-1.1l18.9,32.4
					C453.1,98.4,452.5,98.8,451.9,99.2z"/>
			</g>
			<g>
				<path fill-rule="evenodd" clip-rule="evenodd" fill="#FFFFFF" d="M278.2,62c-0.1-4.6-4-8.3-8.6-8.1c-4.6,0.1-8.3,4-8.1,8.6
					c0.1,4.6,4,8.3,8.6,8.1C274.7,70.4,278.4,66.6,278.2,62z"/>
			</g>
			<g>
				<path fill-rule="evenodd" clip-rule="evenodd" fill="#FFFFFF" d="M254.4,103.2l13.6-32.9c-1-0.2-1.9-0.6-2.7-1.1l-13.7,32.9
					C252.6,102.5,253.5,102.8,254.4,103.2z"/>
			</g>
			<g>
				<path fill-rule="evenodd" clip-rule="evenodd" fill="#FFFFFF" d="M507.4,315.3c-0.1-2.5-1.1-4.7-2.8-6.2
					c-1.7-1.6-3.9-2.5-6.4-2.4c-2.5,0.1-4.7,1.1-6.2,2.8c-1.6,1.7-2.5,3.9-2.4,6.4l0,0c0.1,2.5,1.1,4.7,2.8,6.3
					c1.7,1.6,3.9,2.5,6.4,2.4l0,0c2.5-0.1,4.7-1.1,6.3-2.8C506.6,320,507.5,317.7,507.4,315.3L507.4,315.3z M506.9,306.7
					c2.3,2.1,3.7,5.1,3.8,8.5c0.1,3.4-1.2,6.4-3.3,8.7c-2.1,2.3-5.1,3.7-8.5,3.8h0c-3.4,0.1-6.4-1.2-8.7-3.3
					c-2.3-2.1-3.7-5.1-3.8-8.5v0c-0.1-3.4,1.2-6.4,3.3-8.7c2.1-2.3,5.1-3.7,8.5-3.8C501.5,303.3,504.6,304.5,506.9,306.7z"/>
			</g>
			<g>
				<path fill-rule="evenodd" clip-rule="evenodd" fill="#FFFFFF" d="M504.7,305.1l10.9-22.6c-0.7-0.3-1.3-0.6-1.9-0.9l-10.9,22.6
					C503.5,304.4,504.1,304.7,504.7,305.1z"/>
			</g>
			<g>
				<path fill-rule="evenodd" clip-rule="evenodd" fill="#FFFFFF" d="M495,327.2c-0.7-0.2-1.3-0.5-2-0.8l-5.4,13.4
					c0.7,0.1,1.4,0.4,2,0.8L495,327.2z"/>
			</g>
			<g>
				<path fill-rule="evenodd" clip-rule="evenodd" fill="#FFFFFF" d="M465.7,106.4c-0.1-2.5-1.1-4.7-2.8-6.2
					c-1.7-1.6-3.9-2.5-6.4-2.4c-2.5,0.1-4.7,1.1-6.2,2.8c-1.6,1.7-2.5,3.9-2.4,6.4l0,0c0.1,2.5,1.1,4.7,2.8,6.3
					c1.7,1.6,3.9,2.5,6.4,2.4v0c2.5-0.1,4.7-1.1,6.3-2.8C464.8,111.1,465.7,108.8,465.7,106.4L465.7,106.4z M465.1,97.8
					c2.3,2.1,3.7,5.1,3.8,8.5c0.1,3.4-1.2,6.4-3.3,8.7c-2.1,2.3-5.1,3.7-8.5,3.8h0c-3.4,0.1-6.4-1.2-8.7-3.3
					c-2.3-2.1-3.7-5.1-3.8-8.5v0c-0.1-3.4,1.2-6.4,3.3-8.7c2.1-2.3,5.1-3.7,8.5-3.8C459.7,94.4,462.8,95.6,465.1,97.8z"/>
			</g>
			<g>
				<path fill-rule="evenodd" clip-rule="evenodd" fill="#FFFFFF" d="M447.9,163.8l7.8-45.1c-0.7-0.1-1.4-0.2-2.1-0.4l-7.8,45.1
					C446.5,163.6,447.2,163.7,447.9,163.8z"/>
			</g>
			<g>
				<circle fill-rule="evenodd" clip-rule="evenodd" fill="#FFFFFF" cx="66" cy="110.5" r="8.4"/>
			</g>
			<g>
				<path fill-rule="evenodd" clip-rule="evenodd" fill="#FFFFFF" d="M69.6,103.8l11.3-15.4c0.4,0.2,0.8,0.5,1.2,0.7
					c0.1,0,0.1,0.1,0.2,0.1l-11.3,15.4C70.5,104.3,70.1,104,69.6,103.8z"/>
			</g>
			<g>
				<path fill-rule="evenodd" clip-rule="evenodd" fill="#FFFFFF" d="M38,150.5c-0.1-3.4-2.9-6-6.3-5.9c-3.4,0.1-6,2.9-5.9,6.3
					c0.1,3.4,2.9,6,6.3,5.9C35.5,156.7,38.1,153.9,38,150.5z"/>
			</g>
			<g>
				<path fill-rule="evenodd" clip-rule="evenodd" fill="#FFFFFF" d="M81.6,202.5L54,181.6c-0.4,0.6-0.8,1.2-1.3,1.7l27.6,20.9
					C80.7,203.6,81.2,203.1,81.6,202.5z"/>
			</g>
			<g>
				<path fill-rule="evenodd" clip-rule="evenodd" fill="#FFFFFF" d="M37.5,164.7c0.6-0.4,1.3-0.7,1.9-0.9l-3.9-8.2
					c-0.6,0.4-1.2,0.7-1.9,0.9L37.5,164.7z"/>
			</g>
			<g>
				<path fill-rule="evenodd" clip-rule="evenodd" fill="#FFFFFF" d="M84,257.4l-19.4,11c0.4,0.6,0.8,1.2,1.1,1.9l19.4-11
					C84.7,258.7,84.4,258,84,257.4z"/>
			</g>
			<g>
				<path fill-rule="evenodd" clip-rule="evenodd" fill="#FFFFFF" d="M37.9,344.5c-0.1,4.3,3.4,7.9,7.7,8c4.3,0.1,7.9-3.4,8-7.7
					c0.1-4.3-3.4-7.9-7.7-8C41.6,336.8,38,340.2,37.9,344.5z"/>
			</g>
			<g>
				<path fill-rule="evenodd" clip-rule="evenodd" fill="#FFFFFF" d="M76.1,368.2l-23.5-19.7c-0.5,0.8-1.1,1.5-1.8,2.1l23.5,19.7
					C74.9,369.6,75.5,368.9,76.1,368.2z"/>
			</g>
			<g>
				<path fill-rule="evenodd" clip-rule="evenodd" fill="#FFFFFF" d="M63.5,275.1c-0.1-2.5-1.1-4.7-2.8-6.2
					c-1.7-1.6-3.9-2.5-6.4-2.4c-2.5,0.1-4.7,1.1-6.2,2.8c-1.6,1.7-2.5,3.9-2.4,6.4l0,0c0.1,2.5,1.1,4.7,2.8,6.3
					c1.7,1.6,3.9,2.5,6.4,2.4v0c2.5-0.1,4.7-1.1,6.3-2.8C62.7,279.8,63.6,277.6,63.5,275.1L63.5,275.1z M63,266.5
					c2.3,2.1,3.7,5.1,3.8,8.5c0.1,3.3-1.2,6.4-3.3,8.7c-2.1,2.3-5.1,3.7-8.5,3.8l0,0c-3.4,0.1-6.4-1.2-8.7-3.3
					c-2.3-2.1-3.7-5.1-3.8-8.5v0c-0.1-3.4,1.2-6.4,3.3-8.7c2.1-2.3,5.1-3.7,8.5-3.8C57.6,263.1,60.7,264.4,63,266.5z"/>
			</g>
			<g>
				<path fill-rule="evenodd" clip-rule="evenodd" fill="#FFFFFF" d="M52.7,174.9c-0.1-2.5-1.1-4.7-2.8-6.2
					c-1.7-1.6-3.9-2.5-6.4-2.4c-2.5,0.1-4.7,1.1-6.2,2.8c-1.6,1.7-2.5,3.9-2.4,6.4h0c0.1,2.5,1.1,4.7,2.8,6.3
					c1.7,1.6,3.9,2.5,6.4,2.4v0c2.5-0.1,4.7-1.1,6.3-2.8C51.8,179.7,52.7,177.4,52.7,174.9L52.7,174.9z M52.1,166.4
					c2.3,2.1,3.7,5.1,3.8,8.5c0.1,3.4-1.2,6.4-3.3,8.7c-2.1,2.3-5.1,3.7-8.5,3.8l0,0c-3.4,0.1-6.4-1.2-8.7-3.3
					c-2.3-2.1-3.7-5.1-3.8-8.5v0c-0.1-3.4,1.2-6.4,3.3-8.7c2.1-2.3,5.1-3.7,8.5-3.8C46.7,162.9,49.8,164.2,52.1,166.4z"/>
			</g>
			<g>
				<path fill-rule="evenodd" clip-rule="evenodd" fill="#FFFFFF" d="M135.7,63.4c-1.7-8.1-6.4-14.7-12.8-18.8
					c-6.4-4.2-14.3-5.9-22.4-4.3c-8.1,1.7-14.7,6.4-18.8,12.8c-4.2,6.4-5.9,14.3-4.3,22.4c1.7,8.1,6.4,14.7,12.8,18.8
					c6.4,4.2,14.3,5.9,22.3,4.3l0.1,0c8-1.7,14.7-6.4,18.8-12.8C135.6,79.4,137.4,71.5,135.7,63.4L135.7,63.4L135.7,63.4z
					 M126.1,39.6c7.6,5,13.3,12.8,15.3,22.4l0,0l0,0.2c2,9.6-0.1,19.2-5.1,26.8c-5,7.6-12.8,13.3-22.4,15.3l0,0l-0.2,0
					c-9.6,2-19.2-0.1-26.8-5.1c-7.6-5-13.3-12.9-15.3-22.6c-2-9.6,0.1-19.2,5.1-26.8c5-7.6,12.9-13.4,22.6-15.3
					C109,32.5,118.5,34.6,126.1,39.6z"/>
			</g>
			<g>
				<path fill-rule="evenodd" clip-rule="evenodd" fill="#FFFFFF" d="M457.8,165c-0.2-5.9-5.1-10.6-11-10.4
					c-5.9,0.2-10.6,5.1-10.4,11c0.2,5.9,5.1,10.6,11,10.4C453.3,175.8,457.9,170.9,457.8,165z"/>
			</g>
		</g>
	</g>
	<g>
		<path fill-rule="evenodd" clip-rule="evenodd" fill="#FFFFFF" d="M341.6,129.7L341.6,129.7l0,0.2c-0.2,8.5,3,16.2,8.4,21.9
			c5.4,5.7,12.9,9.3,21.4,9.6h0c8.5,0.2,16.2-3,21.9-8.4c5.7-5.4,9.3-12.9,9.6-21.4v0c0.2-8.5-3-16.2-8.4-21.9
			c-5.4-5.7-13-9.3-21.4-9.6c-8.5-0.2-16.2,3-21.9,8.4C345.6,113.9,341.9,121.4,341.6,129.7L341.6,129.7z M373.3,93.3
			c10.4,0.3,19.6,4.7,26.2,11.7c6.5,6.9,10.5,16.3,10.3,26.5l0,0l0,0.2c-0.3,10.3-4.7,19.6-11.7,26.2c-6.9,6.5-16.3,10.5-26.5,10.3
			h0l-0.2,0c-10.3-0.3-19.6-4.7-26.2-11.7c-6.5-6.9-10.5-16.3-10.3-26.5l0,0l0,0l0-0.2h0c0.3-10.3,4.7-19.6,11.7-26.2
			C353.5,97,363,93.1,373.3,93.3z"/>
	</g>
	<g>
		<path fill-rule="evenodd" clip-rule="evenodd" fill="#FFFFFF" d="M499.9,505.7c7-7.6,10.3-17.4,9.9-27c-0.4-9.6-4.5-19-12.1-26.1
			c-7.6-7-17.4-10.3-27-9.9c-9.6,0.4-19,4.5-26.1,12.1c-7,7.6-10.3,17.4-9.9,27c0.4,9.6,4.5,19,12.1,26.1c7.6,7,17.4,10.3,27,9.9
			C483.4,517.4,492.9,513.3,499.9,505.7L499.9,505.7z M517.2,478.4c0.5,11.5-3.4,23.2-11.8,32.3c-8.4,9.1-19.7,14-31.2,14.4
			c-11.5,0.5-23.2-3.4-32.3-11.9c-9.1-8.4-14-19.7-14.5-31.2c-0.5-11.5,3.4-23.2,11.9-32.3c8.4-9.1,19.7-14,31.2-14.4
			c11.5-0.5,23.2,3.4,32.3,11.9C511.8,455.6,516.7,466.9,517.2,478.4z"/>
	</g>
	<g>
		<path fill-rule="evenodd" clip-rule="evenodd" fill="#FFFFFF" d="M205.6,133.9c-0.2,8.2,2.9,15.8,8.1,21.3
			c5.2,5.5,12.6,9.1,20.8,9.3c8.2,0.2,15.8-2.9,21.3-8.1c5.5-5.2,9.1-12.6,9.3-20.8c0.2-8.2-2.9-15.8-8.1-21.3
			c-5.2-5.5-12.6-9.1-20.8-9.3c-8.2-0.2-15.8,2.9-21.3,8.1C209.3,118.4,205.8,125.7,205.6,133.9L205.6,133.9z M236.3,99.1
			c9.8,0.3,18.7,4.5,24.9,11.1c6.3,6.6,10,15.6,9.8,25.5c-0.3,9.8-4.5,18.7-11.1,24.9c-6.6,6.3-15.6,10-25.5,9.8
			c-9.9-0.3-18.7-4.5-24.9-11.1c-6.3-6.6-10-15.6-9.8-25.5c0.3-9.8,4.5-18.7,11.1-24.9C217.4,102.6,226.5,98.8,236.3,99.1z"/>
	</g>
	<g>
		<path fill-rule="evenodd" clip-rule="evenodd" fill="#FFFFFF" d="M289,283.5c-0.4-16.4-7.5-31-18.5-41.5
			c-11-10.4-26-16.7-42.4-16.2c-16.4,0.4-31,7.5-41.5,18.5c-10.4,11-16.7,26-16.2,42.4c0.4,16.4,7.5,31,18.5,41.5
			c11,10.4,26,16.7,42.4,16.2c16.4-0.4,31-7.5,41.5-18.5C283.2,315,289.5,299.9,289,283.5L289,283.5z M277.9,234.3
			c13,12.3,21.3,29.6,21.9,49c0.5,19.3-6.8,37-19.2,50c-12.3,13-29.6,21.3-49,21.9c-19.3,0.5-37-6.8-50-19.2
			c-13-12.3-21.3-29.6-21.9-49c-0.5-19.3,6.8-37,19.2-50c12.3-13,29.6-21.3,49-21.9C247.1,214.6,264.9,222,277.9,234.3z"/>
	</g>
	<g>
		<path fill-rule="evenodd" clip-rule="evenodd" fill="#FFFFFF" d="M607.7,219c-0.4-16.4-7.5-31-18.5-41.5
			c-11-10.4-26-16.7-42.4-16.2c-16.4,0.4-31,7.5-41.5,18.5c-10.4,11-16.7,26-16.2,42.4c0.4,16.4,7.5,31,18.5,41.5
			c11,10.4,26,16.7,42.4,16.2c16.4-0.4,31-7.5,41.5-18.5C602,250.4,608.2,235.4,607.7,219L607.7,219z M596.6,169.8
			c13,12.3,21.3,29.6,21.9,49c0.5,19.3-6.8,37-19.2,50c-12.3,13-29.6,21.3-49,21.9c-19.3,0.5-37-6.8-50-19.2
			c-13-12.3-21.3-29.6-21.9-49c-0.5-19.3,6.8-37,19.2-50c12.3-13,29.6-21.3,49-21.9C565.9,150.1,583.6,157.5,596.6,169.8z"/>
	</g>
	<g>
		<path fill-rule="evenodd" clip-rule="evenodd" fill="#FFFFFF" d="M128.9,415.9c6.1-6.7,9-15.2,8.6-23.6
			c-0.3-8.4-3.9-16.6-10.6-22.8c-6.7-6.1-15.2-9-23.6-8.6c-8.4,0.3-16.6,3.9-22.8,10.6c-6.1,6.7-9,15.2-8.6,23.6
			c0.3,8.4,3.9,16.6,10.6,22.8c6.7,6.1,15.2,9,23.6,8.6C114.5,426.1,122.7,422.5,128.9,415.9L128.9,415.9z M144,392
			c0.4,10-3,20.2-10.3,28.2c-7.3,8-17.2,12.2-27.3,12.6c-10,0.4-20.2-3-28.2-10.4c-8-7.3-12.2-17.2-12.6-27.3
			c-0.4-10,3-20.2,10.4-28.2c7.3-8,17.2-12.2,27.3-12.6c10-0.4,20.2,3,28.2,10.4C139.3,372.1,143.5,382,144,392z"/>
	</g>
	<g>
		<path fill-rule="evenodd" clip-rule="evenodd" fill="#FFFFFF" d="M593.1,410.6c7-7.6,10.3-17.4,9.9-27c-0.4-9.6-4.5-19-12.1-26.1
			c-7.6-7-17.4-10.3-27-9.9c-9.6,0.4-19.1,4.5-26.1,12.1c-7,7.6-10.3,17.4-9.9,27c0.4,9.6,4.5,19,12.1,26.1c7.6,7,17.4,10.3,27,9.9
			C576.7,422.3,586.1,418.2,593.1,410.6L593.1,410.6z M610.4,383.3c0.5,11.5-3.4,23.2-11.8,32.3c-8.4,9.1-19.7,14-31.2,14.4
			c-11.5,0.5-23.2-3.4-32.3-11.9c-9.1-8.4-14-19.7-14.5-31.2c-0.5-11.5,3.4-23.2,11.9-32.3c8.4-9.1,19.7-14,31.2-14.4
			c11.5-0.5,23.2,3.4,32.3,11.9C605.1,360.5,610,371.8,610.4,383.3z"/>
	</g>
	<g>
		<path fill-rule="evenodd" clip-rule="evenodd" fill="#FFFFFF" d="M138.2,255.7c7-7.6,10.3-17.4,9.9-27c-0.4-9.6-4.5-19-12.1-26.1
			c-7.6-7-17.4-10.3-27-9.9c-9.6,0.4-19.1,4.5-26.1,12.1c-7,7.6-10.3,17.4-9.9,27c0.4,9.6,4.5,19,12.1,26.1c7.6,7,17.4,10.3,27,9.9
			C121.7,267.4,131.2,263.4,138.2,255.7L138.2,255.7z M155.5,228.5c0.5,11.5-3.4,23.2-11.8,32.3c-8.4,9.1-19.7,14-31.2,14.4
			c-11.5,0.5-23.2-3.4-32.3-11.9c-9.1-8.4-14-19.7-14.5-31.2c-0.5-11.5,3.4-23.2,11.9-32.3c8.4-9.1,19.7-14,31.2-14.4
			c11.5-0.5,23.2,3.4,32.3,11.9C150.2,205.7,155,217,155.5,228.5z"/>
	</g>
</g>
</svg>
