<?xml version="1.0" encoding="utf-8"?>
<!-- Generator: Adobe Illustrator 19.1.0, SVG Export Plug-In . SVG Version: 6.00 Build 0)  -->
<svg version="1.1" id="Layer_1" xmlns="http://www.w3.org/2000/svg" xmlns:xlink="http://www.w3.org/1999/xlink" x="0px" y="0px"
	 viewBox="0 0 595.3 516" enable-background="new 0 0 595.3 516" xml:space="preserve">
<path fill="#9DC53E" d="M374.7,76.4h11.5c-1.5-5.6-5.8-10-11.5-11.5V76.4z M374.7,76.4"/>
<path fill="#9DC53E" d="M374.7,84.4v11.4c5.6-1.4,10-5.8,11.5-11.4H374.7z M374.7,84.4"/>
<path fill="#9DC53E" d="M366.7,76.4V64.9c-5.6,1.4-10,5.8-11.5,11.5H366.7z M366.7,76.4"/>
<path fill="#9DC53E" d="M366.7,84.4h-11.5c1.4,5.6,5.8,10,11.5,11.4V84.4z M366.7,84.4"/>
<path fill="#BE1E2D" d="M374.7,56.8c10,1.7,17.9,9.6,19.6,19.6h8c-1.8-14.5-13.2-25.8-27.7-27.7V56.8z M374.7,56.8"/>
<path fill="#9DC53E" d="M347.1,76.4c1.7-10,9.6-17.9,19.6-19.6v-8c-14.5,1.8-25.8,13.2-27.7,27.7H347.1z M347.1,76.4"/>
<path fill="#9DC53E" d="M366.7,104c-10-1.7-17.9-9.6-19.6-19.6h-8c1.8,14.5,13.2,25.8,27.7,27.7V104z M366.7,104"/>
<path fill="#9DC53E" d="M394.4,84.4c-1.7,10-9.6,17.9-19.6,19.6v8c14.5-1.8,25.8-13.2,27.7-27.7H394.4z M394.4,84.4"/>
<path fill="#FFFFFF" d="M318.6,68.4c-1.5-6.2-7.2-9.3-13-9.3c-6,0-9.8,2.7-9.8,6.4c0,4.9,7.4,6.7,15.6,9.3
	c9.5,3.1,20.5,7.8,20.5,18.8c0,11-10.1,18.8-25,18.8c-13.7,0-23.2-7.3-26.7-18.5l12.5-3.2c1.4,5.5,6.6,10.7,14.8,10.7
	c7,0,10.7-3.3,10.7-7.4c0-6.2-8.9-7.7-18.1-10.8c-7.8-2.6-17.5-6.4-17.5-17.2c0-9.6,10.1-17.8,23.9-17.8c12.2,0,22,7,24.8,16.7
	L318.6,68.4z"/>
<path fill="#FFFFFF" d="M64.3,112.4l-14-21.9c-0.3,0-0.5,0-0.8,0H38.9v21.9H25V48.1h24.6c17.3,0,27.6,8.5,27.6,21.5
	c0,8.8-4.7,15.2-13.3,18.5L80,112.4H64.3z M38.9,79.1h12.5c7.7,0,11.3-4.6,11.3-9.5c0-5.1-3.7-9.6-11.3-9.6H38.9V79.1z"/>
<path fill="#FFFFFF" d="M140.1,100.5v11.9H89.7V48.1h49.7v11.9h-35.7v13.7h28.2V85h-28.2v15.5H140.1z"/>
<path fill="#FFFFFF" d="M182.2,48.1c12.5,0,21,7.3,21,16.6c0,6.2-5,11.5-9.7,12.8v0.1c6.7,1.4,13.7,8.1,13.7,15.5
	c0,10.8-7.9,19.3-24.5,19.3h-29.5V48.1H182.2z M179.4,73.8c5.7,0,9.7-3.3,9.7-7.4c0-4.3-4-7.3-9.7-7.3h-12.4v14.8H179.4z
	 M181.3,101.6c6.6,0,11.1-3.6,11.1-9c0-5.4-4.9-9-11.2-9h-14.2v18H181.3z"/>
<path fill="#FFFFFF" d="M258.7,100.1h-30.4l-5.2,12.3h-15.1l28.9-64.3H250l28.9,64.3h-15.1L258.7,100.1z M253.8,88.8l-6.9-16.3
	c-1.5-3.6-3.3-8.9-3.4-8.9h-0.1c-0.1,0-1.9,5.3-3.4,8.9L233,88.8H253.8z"/>
<g>
	<path fill="#FFFFFF" d="M426.1,59.9v15.7h27.2v11.5h-27.2v25.2h-14V47.9h48.7v11.9H426.1z"/>
	<path fill="#FFFFFF" d="M523.2,47.9v11.9h-22.1v52.3h-14V59.9h-21.9V47.9H523.2z"/>
</g>
</svg>
