<?xml version="1.0" encoding="utf-8"?>
<svg version="1.1" id="Layer_1" xmlns="http://www.w3.org/2000/svg" xmlns:xlink="http://www.w3.org/1999/xlink" x="0px" y="0px"
	 viewBox="0 0 50 50" enable-background="new 0 0 50 50" xml:space="preserve">
<path fill="#F1F1F1" d="M43.6,11.4c1.9-0.2,3.8-0.7,5.8-1.6c-1.4,2-3.1,3.8-5,5.2c0,0.3,0,0.7,0,1.3c0,2.7-0.4,5.4-1.2,8
	c-0.8,2.7-2,5.2-3.6,7.7c-1.6,2.5-3.5,4.6-5.7,6.5c-2.2,1.9-4.9,3.4-8,4.5c-3.1,1.1-6.5,1.7-10,1.7c-5.6,0-10.7-1.5-15.4-4.5
	c0.7,0.1,1.5,0.1,2.4,0.1c4.7,0,8.8-1.4,12.4-4.3c-2.2,0-4.1-0.7-5.8-2c-1.7-1.3-2.9-2.9-3.5-4.9c0.7,0.1,1.3,0.2,1.9,0.2
	c0.9,0,1.8-0.1,2.6-0.3c-2.3-0.5-4.2-1.6-5.8-3.5c-1.5-1.8-2.3-4-2.3-6.4v-0.1c1.4,0.8,2.9,1.2,4.5,1.3c-1.4-0.9-2.4-2.1-3.3-3.6
	C3,15.3,2.6,13.8,2.6,12C2.6,10.2,3,8.5,4,7c2.5,3.1,5.5,5.5,9.1,7.4c3.6,1.9,7.4,2.9,11.5,3.1c-0.2-0.8-0.2-1.6-0.2-2.3
	c0-2.8,1-5.1,2.9-7.1s4.3-2.9,7.1-2.9c2.9,0,5.3,1.1,7.3,3.2c2.3-0.4,4.4-1.2,6.4-2.4C47.3,8.3,45.8,10.1,43.6,11.4L43.6,11.4z"/>
</svg>
