<?xml version="1.0" encoding="utf-8"?>
<!-- Generator: Adobe Illustrator 19.1.0, SVG Export Plug-In . SVG Version: 6.00 Build 0)  -->
<svg version="1.1" id="Layer_1" xmlns="http://www.w3.org/2000/svg" xmlns:xlink="http://www.w3.org/1999/xlink" x="0px" y="0px"
	 viewBox="0 0 50 50" enable-background="new 0 0 50 50" xml:space="preserve">
<path fill="#535357" d="M50,9.5v31.2c0,2.6-0.9,4.8-2.7,6.6c-1.8,1.8-4,2.7-6.6,2.7H9.5c-2.6,0-4.8-0.9-6.6-2.7
	c-1.8-1.8-2.7-4-2.7-6.6V9.5c0-2.6,0.9-4.8,2.7-6.6c1.8-1.8,4-2.7,6.6-2.7h31.2c2.6,0,4.8,0.9,6.6,2.7C49.1,4.7,50,6.9,50,9.5z
	 M15.8,12.4c0-1.1-0.4-2.1-1.2-2.8c-0.8-0.7-1.8-1.1-3-1.1c-1.3,0-2.3,0.4-3.1,1.1c-0.8,0.7-1.2,1.7-1.2,2.8c0,1.1,0.4,2,1.2,2.8
	c0.8,0.7,1.8,1.1,3,1.1h0c1.3,0,2.3-0.4,3.1-1.1C15.4,14.4,15.8,13.5,15.8,12.4z M7.8,41.9h7.5V19.4H7.8V41.9z M34.8,41.9h7.5V29
	c0-3.3-0.8-5.9-2.4-7.6c-1.6-1.7-3.7-2.6-6.3-2.6c-2.9,0-5.2,1.3-6.8,3.8h0.1v-3.3h-7.5c0.1,1.4,0.1,8.9,0,22.5h7.5V29.3
	c0-0.8,0.1-1.4,0.2-1.8c0.3-0.8,0.8-1.4,1.5-1.9c0.6-0.5,1.4-0.8,2.4-0.8c2.5,0,3.8,1.7,3.8,5.1V41.9z"/>
</svg>
