<?xml version="1.0" encoding="utf-8"?>
<!-- Generator: Adobe Illustrator 19.1.0, SVG Export Plug-In . SVG Version: 6.00 Build 0)  -->
<svg version="1.1" id="Layer_1" xmlns="http://www.w3.org/2000/svg" xmlns:xlink="http://www.w3.org/1999/xlink" x="0px" y="0px"
	 viewBox="0 0 1024 1024" enable-background="new 0 0 1024 1024" xml:space="preserve">
<path opacity="0.6" fill="#E6E6E6" d="M1001.8,213l-4.3-91.4c1.4-0.4,2.5-1.8,2.5-3.3c0-1.9-1.6-3.5-3.5-3.5c0,0,0,0,0,0l-11.5-67.2
	c1.3-0.5,2.1-1.8,2.2-3.2c0-1.9-1.6-3.5-3.5-3.5c-1,0-1.9,0.4-2.6,1.1l-48.9-30c0.2-0.6,0.4-1.2,0.4-1.9c0-2.7-2.2-4.9-4.9-4.9
	c-2.7,0-4.9,2.2-4.9,4.9c0,0.2,0,0.5,0,0.7l-67.8,16c-0.6-1.2-1.8-2-3.2-2c-1.9,0-3.5,1.6-3.5,3.5c0,1,0.4,1.9,1.1,2.6l-34.6,45.4
	c-0.6-0.4-1.3-0.7-2-0.7c-1.9,0-3.5,1.6-3.5,3.5c0,0.3,0,0.5,0.1,0.8l-29.1,9.6c-0.8-1.7-2.5-2.9-4.5-2.9c-2.7,0-4.9,2.2-4.9,4.9
	c0,0.7,0.1,1.4,0.4,2l-38.3,26.4c-0.9-1-2.2-1.6-3.6-1.6c-2.7,0-4.9,2.2-4.9,4.9c0,1.1,0.4,2.1,1,2.9l-51.2,55.9
	c-0.4-0.1-0.8-0.2-1.2-0.2c-1.9,0-3.5,1.6-3.5,3.5c0,1.4,0.8,2.6,1.9,3.1l-11,31.3c-0.3-0.1-0.6-0.1-0.9-0.1c-1.9,0-3.5,1.6-3.5,3.5
	c0,1.1,0.5,2.1,1.3,2.7l-32.3,55c-0.4-0.2-0.9-0.3-1.5-0.3c-1.9,0-3.5,1.6-3.5,3.5c0,0.2,0,0.4,0.1,0.6L559,305
	c-0.6-1.1-1.7-1.9-3.1-1.9c-0.7,0-1.3,0.2-1.9,0.5l-26.5-25.7c0.3-0.5,0.4-1.1,0.5-1.7c0-1.9-1.6-3.5-3.5-3.5
	c-1.9,0-3.5,1.6-3.5,3.5c0,0.1,0,0.1,0,0.2l-48.3,9.8c-0.6-1.1-1.7-1.8-3-1.8c-1.9,0-3.5,1.6-3.5,3.5c0,1.8,1.3,3.2,2.9,3.5
	l-2.7,68.2c-2.6,0.1-4.6,2.3-4.7,4.9c0,2.7,2.2,4.9,4.9,4.9c0.7,0,1.3-0.1,1.9-0.4l26.3,46.8c-1.2,0.9-2,2.3-2,3.9
	c0,2.7,2.2,4.9,4.9,4.9c1,0,2-0.3,2.8-0.8l40.1,50.9c-0.8,0.9-1.2,2-1.2,3.2c0,2.7,2.2,4.9,4.9,4.9c2.7,0,4.9-2.2,4.9-4.9
	c0-1.1-0.4-2.2-1-3l45.2-40.6c0.7,0.4,1.6,0.7,2.5,0.7c2.7,0,4.9-2.2,4.9-4.9c0-0.2,0-0.5-0.1-0.7l57.3-16.2
	c0.7,1.8,2.5,3.1,4.6,3.1c2.7,0,4.9-2.2,4.9-4.9c0-1.3-0.5-2.4-1.2-3.3l19-48.1c1.9-0.1,3.4-1.6,3.4-3.5c0-0.5-0.1-1-0.3-1.4
	l47-34.2c0.8,0.5,1.7,0.8,2.7,0.8c2.7,0,4.9-2.2,4.9-4.9c0-1.4-0.6-2.6-1.5-3.5l21.2-63.6c0.2,0,0.5,0.1,0.8,0.1
	c2.7,0,4.9-2.2,4.9-4.9c0-1.6-0.7-3-1.9-3.9l30.5-48c0.3,0.1,0.6,0.1,1,0.1c1.7,0,3.1-1.2,3.4-2.8l72.5,5.9c0.2,1.8,1.7,3.1,3.5,3.1
	c1.3,0,2.4-0.7,3-1.7l46,10.7c0,0.2,0,0.4,0,0.5c0,2.7,2.2,4.9,4.9,4.9c2.4,0,4.3-1.6,4.8-3.8l60.4,7.7c0,2.7,2.2,4.8,4.9,4.8
	c2.7,0,4.9-2.2,4.9-4.9C1006.5,215.3,1004.4,213.2,1001.8,213z M996.5,121.8l4.3,91.3c-0.9,0.1-1.7,0.5-2.4,1l-61.6-51
	c0.3-0.5,0.5-1.1,0.5-1.8c0-0.6-0.1-1.1-0.4-1.5l57.2-38.8C994.9,121.5,995.6,121.8,996.5,121.8
	C996.5,121.8,996.5,121.8,996.5,121.8z M813.3,82.4c1.6-0.3,2.8-1.6,2.8-3.3l49.9-3.3c0.2,1.3,0.8,2.4,1.7,3.1l-53.5,52.5
	c-0.7-0.7-1.7-1.1-2.7-1.2L813.3,82.4z M870.9,80.1c0.1,0,0.1,0,0.2,0l-3.2,50.3c-1.7,0.1-3.2,1.4-3.3,3.1l-48.7,1
	c-0.1-0.9-0.4-1.7-1-2.4l53.6-52.6C869.3,79.9,870.1,80.1,870.9,80.1z M814.8,138.2c0.6-0.7,1-1.7,1.1-2.7l48.7-1
	c0.3,1.7,1.7,2.9,3.4,2.9c0.1,0,0.2,0,0.3,0l8.3,55.4c-0.5,0.1-1,0.4-1.3,0.7L814.8,138.2z M868.9,130.5l3.2-50.5
	c1.9-0.4,3.4-2,3.7-3.9l69.2,16c-0.1,0.3-0.1,0.6-0.1,0.9c0,0.7,0.2,1.4,0.4,2.1l-74.5,36.7C870.3,131.1,869.6,130.7,868.9,130.5z
	 M931,159.4l-59.5-24.5c0.1-0.3,0.1-0.6,0.1-1c0-0.5-0.1-1-0.3-1.4l74.5-36.7c0.8,1.1,1.9,1.8,3.3,2l-14.9,60c-0.1,0-0.2,0-0.2,0
	C932.7,157.8,931.6,158.5,931,159.4z M931.6,12.8l48.8,29.9c-0.2,0.5-0.4,1-0.4,1.6c0,1.1,0.5,2.1,1.3,2.7l-28.8,41.9
	c-0.8-0.5-1.7-0.8-2.7-0.8c-0.2,0-0.4,0-0.6,0l-19.7-73.5C930.3,14.2,931.1,13.6,931.6,12.8z M950,97.9c1.7-0.1,3.1-1,3.9-2.3
	l39.3,21.2c-0.2,0.4-0.3,0.9-0.3,1.4c0,0.8,0.2,1.5,0.7,2.1L936.5,159c-0.4-0.4-0.9-0.8-1.5-1L950,97.9z M983.5,47.8
	c0.2,0,0.3,0,0.5,0l11.5,67.1c-0.7,0.2-1.3,0.6-1.7,1.1l-39.4-21.3c0.2-0.5,0.3-1.1,0.3-1.7c0-1.4-0.6-2.6-1.5-3.5l28.9-42
	C982.5,47.7,983,47.8,983.5,47.8z M927.5,15c0.3,0,0.7,0,1-0.1l19.7,73.4c-1.4,0.5-2.5,1.5-3,2.8l-69.3-16c0-1.2-0.5-2.3-1.2-3.2
	l50.9-57.4C926.2,14.8,926.8,15,927.5,15z M855.2,28.2c0-0.2,0-0.4,0-0.6l67.7-15.9c0.3,1,1,1.9,1.8,2.5l-50.8,57.2
	c-0.8-0.6-1.9-1-3-1c-0.3,0-0.7,0-1,0.1l-16-39.5C854.7,30.2,855.2,29.2,855.2,28.2z M851.7,31.7c0.5,0,1-0.1,1.5-0.3l15.9,39.3
	c-1.7,0.7-2.9,2.3-3,4.2l-50,3.3c-0.1-0.5-0.4-1-0.7-1.4l34.7-45.5C850.6,31.5,851.1,31.7,851.7,31.7z M775.6,96.2
	c2.7,0,4.9-2.2,4.9-4.9c0-0.4,0-0.7-0.1-1.1l29.1-9.6c0.5,1,1.6,1.8,2.8,1.9l-1.8,47.7c-2.5,0.2-4.5,2.3-4.5,4.9c0,0.2,0,0.3,0,0.5
	l-53.6,10.2c-0.3-1-1-1.9-1.9-2.6l24-47.1C775,96.2,775.3,96.2,775.6,96.2z M729.2,127.8c2.7,0,4.9-2.2,4.9-4.9
	c0-0.9-0.3-1.8-0.7-2.5L771.6,94c0.5,0.8,1.3,1.4,2.2,1.8l-23.9,46.9c-0.6-0.3-1.3-0.4-2-0.4c-2.7,0-4.9,2.2-4.9,4.9
	c0,0.6,0.1,1.2,0.3,1.7l-67.8,33.8c-0.2-0.2-0.3-0.3-0.5-0.5l51-55.6C726.8,127.3,727.9,127.8,729.2,127.8z M547.6,474.4
	c-0.6-0.6-1.4-1-2.2-1.1l4-56.3c2.7,0,5-1.6,6.2-3.9l35.7,15.8c-0.1,0.4-0.2,0.9-0.2,1.4c0,1.5,0.6,2.8,1.6,3.7L547.6,474.4z
	 M542.3,409.9c0,0.3,0,0.5,0,0.8c-0.3,0.1-0.7,0.1-1.3,0.2c-1.1,0.2-2.7,0.5-4.6,0.9c-3.8,0.7-8.9,1.7-14,2.7
	c-8.9,1.7-17.9,3.4-20,3.8c-0.5-1.4-1.5-2.5-2.9-3l8.5-41.3c0.5,0.2,1,0.2,1.5,0.2c1.2,0,2.2-0.4,3.1-1.1l31.3,32.3
	C542.9,406.6,542.3,408.2,542.3,409.9z M470.1,291.4c0.8-0.1,1.5-0.4,2-1l29.9,28.6c-0.4,0.6-0.6,1.2-0.6,1.9c0,0.9,0.3,1.7,0.9,2.3
	l-33,37c-0.6-0.4-1.3-0.6-2-0.7L470.1,291.4z M503,324c0.5,0.3,1.2,0.6,1.9,0.6l4.1,39.9c-1.6,0.2-3,1.2-3.7,2.6l-33.7-2.2
	c0-0.1,0-0.2,0-0.2c0-1.4-0.6-2.7-1.5-3.6L503,324z M507.7,323.3l45.3,30.5c-0.5,0.7-0.7,1.6-0.7,2.6c0,0.4,0.1,0.8,0.1,1.2L514,367
	c-0.8-1.5-2.3-2.5-4-2.6l-4.1-39.9C506.6,324.2,507.2,323.8,507.7,323.3z M555.6,310.1l1.3,41.4c-1.3,0.1-2.5,0.7-3.4,1.6
	l-45.3-30.6c0.2-0.4,0.3-0.9,0.3-1.4c0-0.2,0-0.5-0.1-0.7l44.2-12.4C553.1,309.2,554.3,310,555.6,310.1z M561.5,358.5l23.8,10.1
	c-0.1,0.4-0.2,0.8-0.2,1.2c0,0.9,0.3,1.7,0.8,2.3l-31.8,32.7c-0.9-0.9-2.1-1.5-3.4-1.7l6.5-41.8
	C559.1,361.2,560.7,360.1,561.5,358.5z M544.6,404.7l-31.2-32.3c0.7-0.9,1.2-2,1.2-3.2c0-0.5-0.1-1-0.2-1.4l38.3-9.5
	c0.7,1.5,2,2.5,3.6,2.8l-6.5,41.7c-0.1,0-0.3,0-0.4,0C547.5,402.9,545.9,403.6,544.6,404.7z M591.7,428L556,412.2
	c0.2-0.7,0.4-1.5,0.4-2.2c0-1.7-0.6-3.3-1.6-4.5l31.9-32.7c0.6,0.4,1.2,0.6,2,0.6c0.1,0,0.3,0,0.4,0l6.4,52.1
	C593.8,425.6,592.4,426.6,591.7,428z M589,313.1l-29.6-6.4c0,0,0,0,0,0c0-0.3,0-0.5-0.1-0.7l60.9-20.7c0.2,0.3,0.3,0.6,0.6,0.9
	l-26.2,25.5c-0.6-0.5-1.4-0.9-2.3-0.9C590.8,310.7,589.5,311.7,589,313.1z M589.9,373.1c0.5-0.2,1-0.5,1.3-0.9l27.4,20.9
	c-0.2,0.4-0.3,0.9-0.3,1.3c0,0.9,0.4,1.8,1,2.4l-20.5,29.5c-0.7-0.5-1.6-0.8-2.6-0.9L589.9,373.1z M733.5,316l-64.6-15.4
	c0-0.2,0-0.4,0-0.6c0-2.1-1.3-3.9-3.2-4.6l4.6-36.7c1.3,0,2.4-0.5,3.3-1.3l60.8,56.6C734,314.6,733.6,315.3,733.5,316z M702,213.5
	l-28.7,36.4c-0.8-0.6-1.9-1-3-1c-0.5,0-1,0.1-1.5,0.2l-8-23.1c1.2-0.5,2.1-1.8,2.1-3.2c0-0.2,0-0.4,0-0.6l37.6-10.8
	C700.8,212.3,701.3,213,702,213.5z M707.4,205.4c-0.7-0.4-1.5-0.6-2.3-0.6c-1.1,0-2,0.3-2.8,0.9l-26.3-19c0.3-0.5,0.4-1.1,0.4-1.7
	c0-0.6-0.1-1.1-0.4-1.6l67.7-33.7c0.3,0.5,0.8,1,1.3,1.4L707.4,205.4z M672.9,188.5c1,0,1.9-0.4,2.5-1.1l26.1,18.8
	c-0.8,0.9-1.4,2.1-1.4,3.4c0,0.3,0,0.6,0.1,0.9l-37.6,10.8c-0.3-0.7-0.8-1.2-1.4-1.6l11-31.4C672.4,188.5,672.6,188.5,672.9,188.5z
	 M669.4,258.6l-4.6,36.5c-0.3,0-0.5-0.1-0.8-0.1c-1.9,0-3.6,1.1-4.4,2.7l-32.8-13.2c0.1-0.3,0.1-0.6,0.1-0.9c0-0.4-0.1-0.8-0.2-1.2
	l39.8-25.6C667.2,257.8,668.2,258.4,669.4,258.6z M654.1,344.9l27.8,11c-0.1,0.3-0.1,0.5-0.1,0.8c0,1.7,1.1,3,2.7,3.4l-18.8,47.5
	c-0.8-0.6-1.7-0.9-2.7-1l-11.4-59.4C652.7,346.8,653.6,346,654.1,344.9z M626.4,285.4l32.9,13.2c-0.1,0.4-0.2,0.8-0.2,1.3
	c0,2.2,1.4,4.1,3.5,4.7l-10.8,33.5c-0.6-0.3-1.2-0.4-1.9-0.4c-0.6,0-1.2,0.1-1.7,0.3l-22.9-51.4
	C625.6,286.4,626.1,285.9,626.4,285.4z M647.9,347.3l-25.2,43.7c-0.2-0.1-0.5-0.1-0.8-0.1c-1.1,0-2.1,0.5-2.8,1.3l-27.4-20.8
	c0.2-0.5,0.4-1,0.4-1.5c0-0.3,0-0.6-0.1-0.9l53.6-23.6C646.1,346.2,646.9,346.9,647.9,347.3z M648.8,347.5c0.3,0.1,0.6,0.1,0.9,0.1
	c0.3,0,0.7,0,1-0.1l11.3,59.1c-1.6,0.2-2.9,1.2-3.7,2.6l-33.1-14.1c0.1-0.3,0.1-0.5,0.1-0.8c0-1.3-0.7-2.5-1.8-3.1L648.8,347.5z
	 M685.4,353.2c-1.3,0-2.5,0.7-3.1,1.8l-27.8-11c0.1-0.4,0.2-0.8,0.2-1.3c0-1.7-0.8-3.2-2.1-4.1l10.9-33.8c0.2,0,0.3,0,0.5,0
	c2.2,0,4-1.4,4.7-3.4l64.7,15.4c0,0,0,0.1,0,0.1c0,1.4,0.5,2.6,1.4,3.5l-46.7,34C687.4,353.7,686.5,353.2,685.4,353.2z M735.1,313.3
	l-60.9-56.7c0.6-0.8,0.9-1.8,0.9-2.8c0-1.2-0.5-2.4-1.2-3.3l28.8-36.6c0.7,0.4,1.5,0.6,2.3,0.6c0.8,0,1.6-0.2,2.3-0.6l29.6,98.3
	C736.2,312.5,735.6,312.9,735.1,313.3z M750.7,191.5c0,0.4,0.1,0.7,0.1,1l-41.2,15.5c-0.3-0.9-0.8-1.6-1.5-2.2l37.5-54.3
	c0.6,0.3,1.4,0.5,2.1,0.5c0.2,0,0.4,0,0.7,0l4.9,36.1C751.8,188.5,750.7,189.9,750.7,191.5z M659.4,226.3c0.2,0,0.4,0,0.5,0l8,23.2
	c-1.5,0.8-2.6,2.4-2.6,4.3c0,0.9,0.2,1.7,0.6,2.4l-39.7,25.5c-0.2-0.3-0.4-0.5-0.6-0.7l32.3-55C658.4,226.2,658.8,226.3,659.4,226.3
	z M623.3,287.2c0.3,0,0.6,0,0.9-0.1l22.9,51.5c-1.4,0.9-2.4,2.4-2.4,4.2c0,0.6,0.1,1.3,0.3,1.8l-53.5,23.6c-0.5-0.8-1.3-1.5-2.3-1.7
	l3.3-48.7c1.7-0.2,3.1-1.7,3.1-3.5c0-0.7-0.2-1.4-0.6-2l26.3-25.6C622,287,622.6,287.2,623.3,287.2z M559.2,307.6l29.6,6.4
	c0,0.1,0,0.1,0,0.2c0,1.8,1.3,3.2,3,3.5l-3.3,48.6c-1.1,0-2.1,0.6-2.7,1.4l-23.9-10.1c0.1-0.4,0.2-0.8,0.2-1.2
	c0-2.5-1.8-4.5-4.2-4.9l-1.3-41.5C557.8,309.8,558.8,308.8,559.2,307.6z M524.5,279.7c1,0,1.9-0.4,2.5-1l26.3,25.5
	c-0.6,0.6-0.9,1.5-0.9,2.4c0,0.2,0,0.3,0,0.5l-44.3,12.4c-0.3-0.5-0.6-1-1.1-1.3l16.8-38.5C524,279.7,524.2,279.7,524.5,279.7z
	 M522.9,279.3l-16.7,38.4c-0.4-0.1-0.8-0.2-1.2-0.2c-0.9,0-1.7,0.3-2.3,0.9l-30-28.6c0.3-0.5,0.5-1.1,0.5-1.8c0-0.3,0-0.6-0.1-0.9
	l48.1-9.7C521.5,278.2,522.1,278.9,522.9,279.3z M497.8,414.9c-0.8,0-1.5,0.2-2.1,0.5l-26.3-46.8c1-0.7,1.8-1.7,2.1-2.9l33.4,2.2
	c-0.1,0.4-0.2,0.9-0.2,1.4c0,1.8,1,3.5,2.5,4.3l-8.5,41.5C498.4,415,498.1,414.9,497.8,414.9z M541.4,474.1l-40.1-50.8
	c0.9-0.9,1.5-2.1,1.5-3.5c0-0.2,0-0.5-0.1-0.7c13-2.5,36.2-6.9,39.8-7.6c0.7,2.8,3,5,6,5.3l-4,56.2c0,0,0,0-0.1,0
	C543.2,473.1,542.2,473.5,541.4,474.1z M599.6,426.9l20.5-29.5c0.5,0.3,1.1,0.5,1.8,0.5c1.3,0,2.5-0.7,3.1-1.8l33.1,14.1
	c-0.1,0.4-0.2,0.9-0.2,1.3c0,0.3,0,0.6,0.1,0.9l-57.3,16.2C600.4,428,600,427.4,599.6,426.9z M738.3,312.2c-0.2,0-0.3,0-0.5,0
	l-29.7-98.7c0.4-0.3,0.8-0.8,1.1-1.2l50,30.8c-0.3,0.6-0.5,1.3-0.5,2.1c0,2.1,1.3,3.9,3.2,4.6l-21.1,63.2
	C740.1,312.4,739.2,312.2,738.3,312.2z M763.7,240.2c-1.6,0-3.1,0.8-4,2l-50.1-30.8c0.2-0.5,0.3-1.1,0.3-1.7c0-0.2,0-0.5,0-0.7
	l41.4-15.6c0.6,1,1.7,1.6,3,1.6c1.8,0,3.3-1.4,3.5-3.2l37-1.5c0.2,1,0.8,1.9,1.6,2.4l-30.5,47.9
	C765.2,240.4,764.5,240.2,763.7,240.2z M798.2,186.4c-1.8,0-3.3,1.4-3.5,3.1l-37,1.5c-0.3-1.6-1.7-2.9-3.4-2.9l-4.9-36.2
	c1.9-0.6,3.4-2.5,3.4-4.6c0-0.2,0-0.4,0-0.6l53.6-10.2c0.5,1.6,1.7,2.8,3.3,3.3l-10.8,46.6C798.6,186.4,798.4,186.4,798.2,186.4z
	 M799.7,186.7l10.8-46.7c0.2,0,0.3,0,0.5,0c1.2,0,2.3-0.4,3.2-1.1l60.6,55.4c-0.3,0.4-0.4,0.9-0.5,1.4l-72.5-5.9
	C801.6,188.3,800.8,187.2,799.7,186.7z M877.7,192.7C877.6,192.7,877.6,192.7,877.7,192.7l-8.4-55.5c0.7-0.3,1.4-0.8,1.8-1.4
	l59.5,24.5c-0.1,0.3-0.2,0.7-0.2,1.1c0,0.6,0.1,1.1,0.4,1.6l-50.2,31.3C880,193.3,878.9,192.7,877.7,192.7z M926.8,207.8L881,197.1
	c0.1-0.3,0.1-0.6,0.1-0.9c0-0.4-0.1-0.7-0.2-1l50.4-31.4c0.6,0.6,1.3,1,2.2,1.1l-2.3,39.5C929.2,204.4,927.4,205.8,926.8,207.8z
	 M932.3,204.4l2.3-39.6c0.7-0.1,1.3-0.5,1.8-0.9l61.5,50.9c-0.5,0.6-0.9,1.4-1.1,2.3l-60.4-7.7c0,0,0-0.1,0-0.1
	C936.4,206.8,934.6,204.8,932.3,204.4z"/>
<path opacity="0.6" fill="#E6E6E6" d="M330.2,273.5l-37-58.6c0.8-0.8,1-2.1,0.4-3.1c-0.7-1.3-2.3-1.7-3.6-1c0,0,0,0,0,0l-32.7-40
	c0.6-0.8,0.8-2,0.2-2.9c-0.7-1.3-2.3-1.7-3.6-1c-0.7,0.4-1.1,1-1.3,1.7l-43.4-1.5c-0.1-0.5-0.2-0.9-0.4-1.4c-1-1.8-3.3-2.4-5.1-1.4
	c-1.8,1-2.4,3.3-1.4,5.1c0.1,0.2,0.2,0.3,0.3,0.4l-38.7,35.8c-0.8-0.6-1.9-0.7-2.9-0.2c-1.3,0.7-1.7,2.3-1,3.6
	c0.4,0.7,1,1.1,1.7,1.3l-5.9,42.8c-0.5-0.1-1.1,0-1.6,0.3c-1.3,0.7-1.7,2.3-1,3.6c0.1,0.2,0.2,0.3,0.3,0.5l-15.6,17.2
	c-1.1-0.9-2.7-1-4-0.3c-1.8,1-2.4,3.3-1.4,5.1c0.3,0.5,0.6,0.8,1,1.1L118,312.3c-1-0.3-2.1-0.3-3,0.3c-1.8,1-2.4,3.3-1.4,5.1
	c0.4,0.7,1,1.3,1.7,1.6l-12.9,55.9c-0.3,0.1-0.6,0.1-0.9,0.3c-1.3,0.7-1.7,2.3-1,3.6c0.5,0.9,1.5,1.4,2.4,1.4l4.4,24.7
	c-0.2,0.1-0.4,0.1-0.6,0.3c-1.3,0.7-1.7,2.3-1,3.6c0.4,0.7,1.1,1.2,1.8,1.3l-0.8,48.3c-0.4,0-0.7,0.1-1.1,0.3
	c-1.3,0.7-1.7,2.3-1,3.6c0.1,0.1,0.2,0.3,0.3,0.4l-32.4,36.4c-0.8-0.5-1.9-0.6-2.7-0.1c-0.5,0.3-0.8,0.6-1,1l-27-7
	c0-0.4-0.1-0.9-0.3-1.3c-0.7-1.3-2.3-1.7-3.6-1c-1.3,0.7-1.7,2.3-1,3.6c0,0,0.1,0.1,0.1,0.1L8.7,519.2c-0.8-0.5-1.8-0.5-2.7,0
	c-1.3,0.7-1.7,2.3-1,3.6c0.6,1.2,2,1.6,3.2,1.2L32,570c-1.7,1.1-2.2,3.2-1.2,5c1,1.8,3.3,2.4,5.1,1.4c0.4-0.2,0.8-0.6,1.1-1l34.8,21
	c-0.5,1-0.5,2.3,0.1,3.3c1,1.8,3.3,2.4,5.1,1.4c0.7-0.4,1.2-0.9,1.5-1.6l45.4,18.6c-0.2,0.9-0.1,1.8,0.4,2.6c1,1.8,3.3,2.4,5.1,1.4
	c1.8-1,2.4-3.3,1.4-5.1c-0.4-0.7-1.1-1.3-1.8-1.6l14.7-43.7c0.6,0,1.3-0.1,1.9-0.5c1.8-1,2.4-3.3,1.4-5.1c-0.1-0.2-0.2-0.3-0.3-0.5
	l31.7-32.1c1.1,0.9,2.8,1.1,4.2,0.4c1.8-1,2.4-3.3,1.4-5.1c-0.5-0.8-1.2-1.4-2-1.7l-5.4-38.8c1.2-0.7,1.6-2.3,0.9-3.6
	c-0.2-0.3-0.4-0.6-0.7-0.8l18.2-40.1c0.7,0.1,1.4-0.1,2.1-0.5c1.8-1,2.4-3.3,1.4-5.1c-0.5-0.9-1.4-1.5-2.3-1.8l-9.8-49.8
	c0.2-0.1,0.4-0.1,0.5-0.2c1.8-1,2.4-3.3,1.4-5.1c-0.6-1-1.6-1.7-2.7-1.9l2.2-43.1c0.2-0.1,0.5-0.1,0.7-0.3c1.1-0.6,1.6-1.9,1.2-3.1
	l50-23.2c0.8,1.1,2.3,1.4,3.5,0.8c0.9-0.5,1.3-1.4,1.4-2.3l34.3-10.1c0.1,0.1,0.1,0.2,0.2,0.4c1,1.8,3.3,2.4,5.1,1.4
	c1.6-0.9,2.2-2.7,1.7-4.3l42.7-17.5c1,1.7,3.3,2.3,5,1.4c1.8-1,2.4-3.3,1.4-5.1C334.1,273.3,332,272.6,330.2,273.5z M292.6,215.3
	l37,58.6c-0.5,0.4-0.9,1-1.2,1.6l-59.6-10.7c0-0.5-0.1-0.9-0.3-1.3c-0.2-0.4-0.5-0.7-0.8-0.9l23.2-46.9
	C291.4,215.7,292,215.7,292.6,215.3C292.6,215.3,292.6,215.3,292.6,215.3z M157.2,257.8c0.9-0.8,1.2-2.1,0.6-3.2l31.7-20.8
	c0.6,0.8,1.4,1.3,2.3,1.4l-15.7,54.6c-0.7-0.2-1.5-0.1-2.3,0.2L157.2,257.8z M194.3,234.8c0,0,0.1-0.1,0.1-0.1l16.7,34.4
	c-1.1,0.7-1.5,2.1-1,3.3l-31.7,18.8c-0.4-0.6-0.9-1-1.6-1.2l15.7-54.7C193.1,235.2,193.7,235.1,194.3,234.8z M179,294
	c0.1-0.7,0-1.5-0.3-2.2l31.7-18.8c0.8,1,2.2,1.3,3.4,0.6c0.1,0,0.1-0.1,0.2-0.1l26.1,33.4c-0.3,0.3-0.5,0.6-0.6,1L179,294z
	 M211.7,268.7L195,234.2c1.1-1,1.5-2.6,1-4l51.6-15.3c0.1,0.2,0.2,0.4,0.3,0.6c0.3,0.5,0.6,0.9,1.1,1.2l-35.4,52
	C212.9,268.6,212.3,268.6,211.7,268.7z M263.5,264.6l-48.4,6.1c-0.1-0.2-0.1-0.5-0.3-0.7c-0.2-0.3-0.4-0.6-0.7-0.8l35.4-52
	c0.9,0.4,2,0.5,2.9,0.1l12.6,45.1c-0.1,0-0.1,0.1-0.2,0.1C264,262.9,263.5,263.7,263.5,264.6z M209.2,167.7l43.3,1.5
	c0,0.4,0.1,0.8,0.3,1.2c0.4,0.7,1.1,1.2,1.9,1.3l-3.3,38.4c-0.7-0.1-1.4,0.1-2.1,0.5c-0.1,0.1-0.3,0.2-0.4,0.3l-40.4-41.1
	C208.8,169.2,209.1,168.4,209.2,167.7z M253,217c1.1-0.7,1.7-1.8,1.7-3l33.9-0.7c0,0.4,0.1,0.7,0.3,1.1c0.3,0.5,0.7,0.9,1.2,1.1
	L267,262.3c-0.4-0.1-0.9-0.2-1.3-0.1L253,217z M256.4,171.4c0.1-0.1,0.2-0.1,0.3-0.2l32.7,39.9c-0.4,0.4-0.6,0.9-0.7,1.4l-33.9,0.7
	c-0.1-0.4-0.2-0.9-0.4-1.3c-0.5-0.9-1.3-1.5-2.3-1.8l3.4-38.5C255.7,171.7,256.1,171.6,256.4,171.4z M207.3,170.7
	c0.2-0.1,0.4-0.3,0.6-0.4l40.4,41.1c-0.7,0.8-1.1,1.9-0.9,3l-51.7,15.3c-0.5-0.8-1.2-1.4-2-1.6l12.2-56.8
	C206.3,171.1,206.8,171,207.3,170.7z M164.5,206.4c-0.1-0.1-0.2-0.3-0.3-0.4l38.7-35.8c0.6,0.5,1.3,0.9,2.1,0.9L193,227.8
	c-0.8-0.1-1.6,0-2.3,0.4c-0.2,0.1-0.4,0.3-0.6,0.4l-25.3-20.1C165,207.9,164.9,207.1,164.5,206.4z M163.5,210
	c0.3-0.2,0.6-0.4,0.8-0.7l25.2,20c-0.9,1.1-1.1,2.6-0.4,3.9L157.4,254c-0.3-0.3-0.6-0.5-1-0.7l5.9-43
	C162.7,210.3,163.1,210.2,163.5,210z M137.5,280.9c1.8-1,2.4-3.3,1.4-5.1c-0.1-0.3-0.3-0.5-0.5-0.7L154,258c0.7,0.5,1.7,0.6,2.6,0.2
	l16.7,32.1c-1.6,1.1-2.1,3.2-1.2,4.9c0.1,0.1,0.1,0.2,0.2,0.3l-31.5,26.7c-0.6-0.6-1.4-0.9-2.2-1l-1.7-40
	C137,281.1,137.3,281,137.5,280.9z M118.7,319.1c1.8-1,2.4-3.3,1.4-5.1c-0.3-0.6-0.8-1.1-1.4-1.4L134,281c0.7,0.3,1.4,0.4,2.1,0.4
	l1.7,39.8c-0.5,0-1,0.2-1.5,0.5c-1.8,1-2.4,3.3-1.4,5.1c0.2,0.4,0.5,0.7,0.8,1l-32.1,47.6c-0.2-0.1-0.3-0.1-0.5-0.1l12.9-55.7
	C116.9,319.7,117.8,319.6,118.7,319.1z M128.3,615.3c-0.6-0.1-1.3-0.1-1.9,0.1l-18.4-38.6c1.8-1,2.7-2.9,2.6-4.9l29.4-2.9
	c0.1,0.3,0.2,0.7,0.4,1c0.5,1,1.4,1.6,2.4,1.8L128.3,615.3z M100.8,574.8c0.1,0.2,0.2,0.3,0.3,0.5c-0.2,0.1-0.4,0.3-0.7,0.6
	c-0.7,0.6-1.6,1.4-2.7,2.3c-2.3,1.9-5.3,4.5-8.3,7c-5.3,4.5-10.5,8.9-11.7,10c-0.8-0.7-1.9-1.1-3-0.9l-9.8-30.4
	c0.4-0.1,0.7-0.2,1.1-0.4c0.8-0.4,1.3-1.1,1.6-1.9l32.7,9.6C100,572.4,100.1,573.7,100.8,574.8z M8.9,523.7c0.5-0.4,0.8-0.8,1-1.4
	l30.4,7.7c0,0.5,0.1,1,0.3,1.5c0.3,0.6,0.9,1,1.5,1.2l-7.9,36.7c-0.5,0-1.1,0.1-1.6,0.3L8.9,523.7z M42.8,532.8c0.5,0,1-0.1,1.4-0.3
	l17.6,24.7c-1,0.7-1.5,1.9-1.5,3.1l-23,11.1c0-0.1-0.1-0.1-0.1-0.2c-0.5-0.9-1.4-1.5-2.3-1.8L42.8,532.8z M45.6,530.6l41.2,3.2
	c0,0.7,0.1,1.3,0.5,2c0.1,0.3,0.3,0.5,0.5,0.7l-21.7,20.6c-1.1-0.7-2.4-0.8-3.6-0.2l-17.6-24.8C45.2,531.7,45.5,531.2,45.6,530.6z
	 M72.3,504l16.3,26.8c-0.9,0.5-1.4,1.4-1.6,2.3l-41.3-3.2c0-0.4-0.1-0.7-0.3-1.1c-0.1-0.2-0.2-0.3-0.3-0.4l24.5-24.7
	C70.3,504.4,71.4,504.5,72.3,504z M94.2,533.8l19.5-2.2c0,0.3,0.1,0.6,0.3,0.9c0.3,0.6,0.8,1,1.4,1.2l-8.8,33.4
	c-0.9-0.2-1.9-0.2-2.9,0.1l-11.3-30C93.7,536.5,94.3,535.1,94.2,533.8z M100.4,570.6l-32.6-9.6c0.2-0.8,0-1.7-0.4-2.5
	c-0.2-0.3-0.4-0.6-0.7-0.9L88.3,537c1,0.7,2.3,0.9,3.4,0.5l11.3,29.9c-0.1,0-0.2,0.1-0.3,0.1C101.6,568.3,100.8,569.3,100.4,570.6z
	 M140,568.3l-29.4,2.9c-0.1-0.6-0.3-1.1-0.6-1.6c-0.6-1.1-1.6-1.9-2.7-2.4l8.8-33.5c0.5,0,1-0.1,1.5-0.3c0.1,0,0.2-0.1,0.3-0.2
	l23.6,31.9C140.5,565.9,140,567.1,140,568.3z M95.4,493.6l-21.9,6.8c0,0,0,0,0,0c-0.1-0.2-0.2-0.3-0.3-0.5l32.4-36.4
	c0.2,0.2,0.5,0.3,0.7,0.4l-7.7,26.6c-0.6-0.1-1.2,0-1.8,0.3C95.7,491.3,95.2,492.5,95.4,493.6z M118.4,532.8
	c0.3-0.3,0.4-0.7,0.5-1.1l25.9,3.5c0,0.3,0.1,0.7,0.3,1c0.3,0.6,0.9,1,1.5,1.2l-2.5,27.1c-0.7-0.1-1.4,0-2,0.4L118.4,532.8z
	 M191.7,441.6l-48.4,14c-0.1-0.1-0.1-0.3-0.2-0.4c-0.8-1.4-2.3-2.1-3.8-1.9l-10.7-25.9c0.8-0.5,1.4-1.3,1.7-2.1l61.2,14.6
	C191.5,440.4,191.6,441,191.7,441.6z M132.7,385.7l-5.3,34.7c-0.8-0.1-1.6,0-2.4,0.4c-0.3,0.2-0.6,0.4-0.9,0.7l-13.9-12.2
	c0.6-0.8,0.7-1.9,0.2-2.9c-0.1-0.1-0.2-0.2-0.2-0.4L131,385C131.5,385.4,132.1,385.6,132.7,385.7z M133.2,378.4
	c-0.6,0-1.2,0.2-1.8,0.5c-0.7,0.4-1.2,1-1.5,1.7l-24.4-2.7c0-0.4-0.1-0.9-0.3-1.3c-0.2-0.4-0.5-0.7-0.9-0.9l32-47.5
	c0.4,0.2,0.9,0.4,1.4,0.5L133.2,378.4z M104.2,380.1c0.7-0.4,1.1-1,1.3-1.6l24.3,2.7c-0.2,0.9-0.1,1.9,0.4,2.7
	c0.1,0.2,0.3,0.4,0.4,0.6l-20.8,21.2c-0.4-0.3-1-0.5-1.5-0.5l-4.5-24.8C103.8,380.3,104,380.2,104.2,380.1z M128.1,427.7l10.6,25.8
	c-0.2,0.1-0.4,0.2-0.6,0.3c-1.3,0.7-2,2.1-1.9,3.4l-26.6,3.5c-0.1-0.2-0.1-0.4-0.2-0.6c-0.2-0.3-0.3-0.5-0.6-0.7l16.7-31.7
	C126.3,427.9,127.2,428,128.1,427.7z M150.2,490.2l22.4-3.1c0.1,0.2,0.1,0.4,0.2,0.6c0.6,1.1,1.9,1.6,3,1.3l5.3,38.3
	c-0.7-0.1-1.5,0-2.1,0.4l-29.7-34.9C150,492,150.3,491.1,150.2,490.2z M109.7,461.4l26.6-3.5c0.1,0.3,0.2,0.6,0.4,0.9
	c0.8,1.5,2.5,2.2,4,1.8l5.4,26.1c-0.5,0.1-1,0.2-1.4,0.5c-0.4,0.2-0.7,0.5-1,0.8l-34.3-25.3C109.6,462.3,109.7,461.8,109.7,461.4z
	 M147,494.1l-0.3,38.2c-0.2,0.1-0.4,0.1-0.5,0.2c-0.7,0.4-1.2,1.1-1.3,1.9l-25.8-3.5c0-0.4-0.1-0.8-0.3-1.1
	c-0.1-0.2-0.2-0.4-0.4-0.5l26.5-35.6C145.4,494.1,146.2,494.2,147,494.1z M147.7,494c0.2-0.1,0.4-0.2,0.7-0.3
	c0.2-0.1,0.4-0.3,0.6-0.4l29.6,34.7c-1,0.8-1.5,1.9-1.4,3.1l-27.1,3c-0.1-0.2-0.1-0.4-0.2-0.5c-0.5-0.9-1.4-1.4-2.4-1.4L147.7,494z
	 M173.9,484c-0.9,0.5-1.4,1.4-1.4,2.3l-22.4,3.1c-0.1-0.3-0.2-0.6-0.4-0.9c-0.6-1.1-1.7-1.8-2.9-1.9l-5.4-26.4
	c0.1-0.1,0.2-0.1,0.3-0.2c1.4-0.8,2.1-2.4,1.8-4l48.4-14c0,0,0,0,0,0.1c0.5,0.9,1.3,1.5,2.3,1.8l-18.1,39.8
	C175.5,483.6,174.6,483.6,173.9,484z M191.8,439.2l-61.3-14.6c0.1-0.7-0.1-1.5-0.5-2.2c-0.5-0.8-1.2-1.4-2-1.7l5.3-34.9
	c0.6,0,1.2-0.2,1.7-0.5c0.5-0.3,1-0.7,1.3-1.2l56.2,53.8C192.3,438.2,192,438.7,191.8,439.2z M156.6,353.1c0.1,0.2,0.3,0.4,0.5,0.6
	l-21.3,25.6c-0.5-0.5-1.2-0.8-1.8-0.9l4.5-49.8c0.5,0,1.1-0.2,1.6-0.5c0.1-0.1,0.3-0.2,0.4-0.3l16.7,22
	C156.3,350.7,156,352,156.6,353.1z M109.4,410.1c0.1-0.1,0.2-0.1,0.3-0.2l13.9,12.3c-0.7,1.1-0.8,2.6-0.1,3.8c0.3,0.6,0.8,1,1.3,1.4
	L108.2,459c-0.2-0.1-0.4-0.2-0.7-0.2l0.8-48.3C108.7,410.4,109.1,410.3,109.4,410.1z M108.4,463.7c0.2-0.1,0.4-0.3,0.6-0.4
	l34.3,25.4c-0.6,1.1-0.7,2.5,0,3.6c0.2,0.4,0.6,0.8,0.9,1.1l-26.5,35.5c-0.6-0.4-1.4-0.5-2.1-0.3l-16-33.3c1.1-0.8,1.4-2.3,0.8-3.4
	c-0.3-0.5-0.7-0.8-1.1-1.1l7.7-26.7C107.4,464,107.9,463.9,108.4,463.7z M73.7,501l21.9-6.8c0,0,0,0.1,0.1,0.1
	c0.7,1.2,2,1.6,3.3,1.2l16,33.3c-0.7,0.4-1.1,1.2-1.2,1.9l-19.6,2.2c-0.1-0.3-0.2-0.6-0.3-0.9c-0.9-1.6-2.9-2.3-4.6-1.6l-16.3-26.9
	C73.6,503,73.9,502,73.7,501z M40.4,495.7c0.6-0.4,1.1-1,1.3-1.6l26.9,7c-0.1,0.6-0.1,1.3,0.3,1.9c0.1,0.1,0.1,0.2,0.2,0.3L44.5,528
	c-0.4-0.2-0.8-0.4-1.2-0.4l-3.3-31.7C40.1,495.8,40.3,495.7,40.4,495.7z M39.2,496l3.3,31.6c-0.3,0-0.6,0.1-0.9,0.3
	c-0.6,0.3-1,0.8-1.2,1.4L10,521.6c0-0.5-0.1-0.9-0.3-1.4c-0.1-0.2-0.2-0.4-0.4-0.5l28.1-24.4C37.9,495.8,38.5,496,39.2,496z
	 M73.3,594.7c-0.5,0.3-0.9,0.7-1.2,1.1l-34.8-21c0.4-0.8,0.5-1.8,0.3-2.7l22.8-11.1c0.1,0.3,0.2,0.7,0.4,1c0.7,1.2,1.9,1.9,3.3,1.9
	l9.9,30.5C73.7,594.5,73.5,594.6,73.3,594.7z M124.1,617.5L78.7,599c0.3-0.9,0.2-1.9-0.3-2.8c-0.1-0.2-0.2-0.3-0.3-0.4
	c7.6-6.5,21.3-18.1,23.4-19.9c1.5,1.6,3.9,2.1,5.9,1.3l18.3,38.6c0,0,0,0,0,0C125,616.1,124.4,616.8,124.1,617.5z M144.9,564.6
	l2.5-27.1c0.5,0,0.9-0.1,1.4-0.3c0.9-0.5,1.4-1.4,1.4-2.4l27.1-3c0.1,0.3,0.2,0.6,0.4,1c0.1,0.2,0.2,0.4,0.4,0.6l-31.7,32.1
	C145.8,565,145.4,564.8,144.9,564.6z M193.5,437.2c-0.1,0.1-0.2,0.1-0.3,0.2l-56.4-54c0.1-0.4,0.2-0.8,0.3-1.2l44.5,1.6
	c0,0.5,0.2,1.1,0.5,1.6c0.8,1.4,2.3,2.1,3.8,1.8l9.7,49.5C194.8,436.7,194.1,436.9,193.5,437.2z M183.4,380.3
	c-1.1,0.6-1.7,1.7-1.9,2.8l-44.5-1.6c-0.1-0.4-0.2-0.9-0.4-1.3c-0.1-0.2-0.2-0.3-0.3-0.4l21.4-25.7c0.8,0.4,1.7,0.4,2.6,0
	c1.2-0.7,1.7-2.2,1.1-3.4l23.9-14.8c0.5,0.6,1.2,1,2,1l-2.2,43C184.5,379.9,183.9,380,183.4,380.3z M186,331.9
	c-1.2,0.7-1.7,2.1-1.1,3.4L161,350.1c-0.8-1-2.2-1.3-3.3-0.7L141,327.4c1-1.2,1.3-2.9,0.5-4.3c-0.1-0.1-0.2-0.2-0.2-0.4l31.5-26.7
	c0.9,0.9,2.2,1.2,3.4,1l10.3,34.8C186.3,331.8,186.1,331.9,186,331.9z M187.1,331.6l-10.3-34.8c0.1-0.1,0.2-0.1,0.3-0.2
	c0.8-0.4,1.4-1.1,1.7-1.9l60.6,13.9c0,0.4,0,0.7,0.2,1.1l-50,23.1C189,332,188,331.5,187.1,331.6z M240.7,306.4
	C240.7,306.4,240.7,306.4,240.7,306.4L214.5,273c0.4-0.5,0.6-1,0.6-1.6l48.4-6.1c0.1,0.3,0.1,0.5,0.3,0.8c0.2,0.4,0.5,0.7,0.9,0.9
	l-21.4,39.4C242.5,306,241.6,306,240.7,306.4z M278.8,298l-34.2,10.1c-0.1-0.2-0.1-0.4-0.3-0.6c-0.1-0.2-0.3-0.5-0.5-0.6l21.5-39.5
	c0.6,0.2,1.3,0.2,1.9-0.1l13.3,26.9C279.1,294.9,278.4,296.5,278.8,298z M281.1,293.8l-13.3-26.9c0.4-0.3,0.7-0.8,0.9-1.3l59.5,10.6
	c-0.1,0.6-0.1,1.3,0.2,1.9l-42.7,17.4c0,0,0-0.1,0-0.1C284.7,293.8,282.8,293.1,281.1,293.8z"/>
<path opacity="0.6" fill="#E6E6E6" d="M216.5,111.5l-60.9-33.2c0.3-1.1-0.2-2.3-1.2-2.9c-1.3-0.8-2.9-0.4-3.7,0.9c0,0,0,0,0,0
	l-48.1-19c0.2-1-0.3-2.1-1.2-2.7c-1.3-0.8-2.9-0.4-3.7,0.9c-0.4,0.7-0.5,1.4-0.3,2.1L58.9,77.6c-0.3-0.4-0.6-0.7-1.1-1
	c-1.8-1.1-4-0.5-5.1,1.2c-1.1,1.8-0.5,4,1.2,5.1c0.1,0.1,0.3,0.2,0.5,0.2L38,133.3c-1-0.1-2,0.3-2.6,1.2c-0.8,1.3-0.4,2.9,0.9,3.7
	c0.7,0.4,1.4,0.5,2.1,0.3l15.8,40.3c-0.5,0.2-0.9,0.6-1.2,1.1c-0.8,1.3-0.4,2.9,0.9,3.7c0.2,0.1,0.3,0.2,0.5,0.2l-5.2,22.6
	c-1.4-0.2-2.9,0.4-3.7,1.7c-1.1,1.8-0.5,4,1.2,5.1c0.4,0.3,0.9,0.4,1.4,0.5l2,35.2c-1,0.2-1.9,0.8-2.5,1.7c-1.1,1.8-0.5,4,1.2,5.1
	c0.7,0.4,1.5,0.6,2.3,0.5l16,55.1c-0.2,0.2-0.4,0.4-0.6,0.7c-0.8,1.3-0.4,2.9,0.9,3.7c0.9,0.5,2,0.5,2.8,0l15.9,19.4
	c-0.2,0.2-0.3,0.3-0.4,0.5c-0.8,1.3-0.4,2.9,0.9,3.7c0.7,0.4,1.5,0.5,2.2,0.3l22.9,42.6c-0.3,0.2-0.6,0.5-0.8,0.8
	c-0.8,1.3-0.4,2.9,0.9,3.7c0.1,0.1,0.3,0.1,0.4,0.2l-10.6,47.6c-1-0.1-1.9,0.4-2.4,1.3c-0.3,0.4-0.4,0.9-0.4,1.4l-27,7
	c-0.2-0.4-0.5-0.7-0.9-1c-1.3-0.8-2.9-0.4-3.7,0.9c-0.8,1.3-0.4,2.9,0.9,3.7c0,0,0.1,0.1,0.1,0.1l-12.7,35.1c-0.9,0-1.8,0.4-2.3,1.3
	c-0.8,1.3-0.4,2.9,0.9,3.7c1.1,0.7,2.6,0.4,3.4-0.5l43.1,28.6c-0.9,1.7-0.4,3.9,1.3,4.9c1.8,1.1,4,0.5,5.1-1.2
	c0.3-0.4,0.4-0.9,0.5-1.4l40.7,1.4c0.1,1.1,0.7,2.2,1.8,2.8c1.8,1.1,4,0.5,5.1-1.2c0.4-0.7,0.6-1.4,0.5-2.1l48.7-6
	c0.3,0.8,0.8,1.6,1.6,2.1c1.8,1.1,4,0.5,5.1-1.2c1.1-1.8,0.5-4-1.2-5.1c-0.7-0.4-1.5-0.6-2.3-0.5l-8.5-45.3c0.6-0.3,1.1-0.8,1.4-1.3
	c1.1-1.8,0.5-4-1.2-5.1c-0.2-0.1-0.3-0.2-0.5-0.2l12.1-43.5c1.5,0.3,3-0.4,3.8-1.7c1.1-1.8,0.5-4-1.2-5.1c-0.8-0.5-1.7-0.6-2.6-0.5
	l-23.6-31.2c0.7-1.2,0.3-2.8-0.9-3.6c-0.3-0.2-0.7-0.3-1-0.4l-3.6-43.8c0.6-0.3,1.2-0.8,1.6-1.4c1.1-1.8,0.5-4-1.2-5.1
	c-0.9-0.6-1.9-0.7-2.9-0.4l-32.8-38.7c0.1-0.1,0.2-0.3,0.3-0.5c1.1-1.7,0.5-4-1.2-5.1c-1-0.6-2.2-0.7-3.3-0.3l-19.1-38.7
	c0.2-0.2,0.3-0.4,0.5-0.6c0.7-1.1,0.5-2.5-0.4-3.3l32.4-44.6c1.2,0.6,2.7,0.2,3.4-1c0.5-0.8,0.5-1.8,0.1-2.6l25-25.5
	c0.1,0.1,0.2,0.2,0.3,0.2c1.8,1.1,4,0.5,5.1-1.2c0.9-1.5,0.6-3.4-0.6-4.6l28.8-36.1c1.7,1,4,0.5,5-1.3c1.1-1.8,0.5-4-1.2-5.1
	C219.8,109.4,217.6,109.9,216.5,111.5z M155.3,79l60.8,33.1c-0.3,0.6-0.3,1.3-0.3,1.9l-57.3,19.8c-0.2-0.4-0.5-0.8-1-1
	c-0.4-0.2-0.7-0.3-1.1-0.4l-2.6-52.3C154.5,80,155,79.6,155.3,79C155.3,79.1,155.3,79.1,155.3,79z M57.8,182.2c0.4-1.1,0-2.4-1-3.1
	l17.5-33.6c0.9,0.4,1.8,0.4,2.7,0.1l12.9,55.3c-0.7,0.2-1.4,0.7-1.9,1.3L57.8,182.2z M78.9,144c0,0,0-0.1,0.1-0.1l31.3,21.9
	c-0.6,1.2-0.3,2.6,0.7,3.4L92.5,201c-0.6-0.3-1.3-0.4-2-0.3l-13-55.4C78.1,145,78.6,144.5,78.9,144z M94.5,203.1
	c-0.2-0.7-0.7-1.3-1.3-1.8l18.5-31.9c1.2,0.5,2.6,0,3.2-1.1c0-0.1,0.1-0.1,0.1-0.2l39.1,16.4c-0.1,0.4-0.1,0.8-0.1,1.2L94.5,203.1z
	 M110.7,165.1l-31.4-22c0.5-1.4,0-3-1.1-3.9l37.6-38.5c0.2,0.1,0.3,0.3,0.5,0.4c0.5,0.3,1,0.5,1.5,0.5l-5.6,62.6
	C111.7,164.4,111.2,164.7,110.7,165.1z M153.9,136.3l-39.3,28.9c-0.2-0.2-0.4-0.3-0.6-0.5c-0.3-0.2-0.7-0.3-1-0.4l5.6-62.6
	c1-0.1,1.9-0.5,2.6-1.3l33,33.2c0,0.1-0.1,0.1-0.1,0.2C153.5,134.6,153.5,135.5,153.9,136.3z M59.2,78.2l38.6-19.8
	c0.2,0.3,0.5,0.7,0.9,0.9c0.7,0.4,1.5,0.5,2.3,0.2l15.8,35.1c-0.6,0.3-1.2,0.8-1.6,1.4c-0.1,0.1-0.2,0.3-0.2,0.4L59.5,80.4
	C59.7,79.6,59.5,78.8,59.2,78.2z M121.6,99.8c0.6-1.1,0.6-2.4,0-3.4l29.2-17.1c0.2,0.3,0.5,0.6,0.8,0.8c0.5,0.3,1.1,0.4,1.6,0.4
	l2.6,52.2c-0.4,0.1-0.9,0.3-1.2,0.6L121.6,99.8z M102.3,58.4c0.1-0.1,0.1-0.2,0.2-0.3l48,18.9c-0.1,0.5-0.1,1.1,0,1.6l-29.3,17.2
	c-0.3-0.3-0.6-0.7-1-0.9c-0.9-0.5-1.9-0.7-2.8-0.4l-15.8-35.2C101.9,59,102.1,58.7,102.3,58.4z M59,81.7c0.1-0.2,0.2-0.4,0.3-0.7
	l55.3,16.1c-0.2,1.1,0,2.2,0.7,3.1l-37.7,38.6c-0.8-0.5-1.7-0.6-2.5-0.5L58,82.8C58.4,82.5,58.8,82.2,59,81.7z M39.1,133.7
	c-0.1-0.1-0.3-0.1-0.4-0.2l16.3-50.1c0.8,0.2,1.6,0.1,2.3-0.2l17.1,55.4c-0.7,0.3-1.4,0.8-1.8,1.5c-0.1,0.2-0.2,0.4-0.3,0.7
	l-31.9-5.2C40.2,134.8,39.8,134.1,39.1,133.7z M40,137.4c0.2-0.3,0.3-0.7,0.4-1.1l31.7,5.2c-0.2,1.4,0.4,2.8,1.5,3.6l-17.5,33.6
	c-0.4-0.1-0.8-0.2-1.2-0.1l-15.8-40.4C39.5,138,39.8,137.7,40,137.4z M51.8,212c1.1-1.8,0.5-4-1.2-5.1c-0.2-0.1-0.5-0.3-0.8-0.4
	l5.2-22.6c0.9,0.1,1.8-0.3,2.3-1.1l30.2,19.9c-0.9,1.7-0.3,3.8,1.4,4.8c0.1,0.1,0.2,0.1,0.3,0.2l-14.5,38.7
	c-0.8-0.2-1.6-0.1-2.4,0.2l-21-34.1C51.6,212.4,51.7,212.2,51.8,212z M54,254.5c1.1-1.7,0.5-4-1.2-5.1c-0.6-0.4-1.3-0.5-1.9-0.5
	l-2-35.1c0.7,0,1.4-0.3,2-0.7L71.8,247c-0.4,0.3-0.8,0.7-1.1,1.1c-1.1,1.7-0.5,4,1.2,5.1c0.4,0.2,0.8,0.4,1.2,0.5l-4.8,57.2
	c-0.2,0-0.3,0.1-0.5,0.2l-15.9-54.9C52.8,255.9,53.5,255.3,54,254.5z M207,508.4c-0.6,0.2-1.2,0.5-1.6,1l-34.9-24.8
	c1-1.8,0.9-3.9-0.1-5.5l24.3-16.9c0.2,0.3,0.5,0.5,0.8,0.7c0.9,0.6,2,0.7,3,0.4L207,508.4z M163.1,486.5c0.2,0.1,0.3,0.2,0.5,0.3
	c-0.1,0.2-0.2,0.5-0.3,0.9c-0.3,0.8-0.7,2-1.3,3.3c-1,2.8-2.4,6.5-3.8,10.1c-2.4,6.5-4.8,12.9-5.4,14.4c-1.1-0.2-2.2,0-3.1,0.7
	l-23.4-21.8c0.3-0.2,0.5-0.5,0.8-0.9c0.5-0.8,0.6-1.6,0.5-2.4l33.2-7.5C161.3,484.8,162,485.8,163.1,486.5z M58,486.6
	c0.3-0.5,0.3-1.1,0.2-1.7l30.3-8.1c0.2,0.5,0.6,0.9,1,1.1c0.6,0.4,1.2,0.5,1.9,0.3l11,35.9c-0.5,0.2-0.9,0.6-1.2,1L58,486.6z
	 M92,478.1c0.4-0.2,0.8-0.5,1.1-1l27.4,13c-0.5,1.1-0.4,2.4,0.2,3.4l-14.7,20.9c-0.1,0-0.1-0.1-0.2-0.1c-0.9-0.6-2-0.7-2.9-0.4
	L92,478.1z M93.4,474.8l37.6-17.3c0.3,0.6,0.8,1.1,1.4,1.5c0.3,0.2,0.5,0.3,0.8,0.4l-8.9,28.5c-1.3-0.1-2.5,0.5-3.3,1.6l-27.5-13.1
	C93.6,475.9,93.6,475.3,93.4,474.8z M103.7,438.6L131,454c-0.5,0.9-0.6,1.9-0.3,2.8l-37.6,17.3c-0.2-0.3-0.5-0.6-0.8-0.8
	c-0.2-0.1-0.3-0.2-0.5-0.2l9.4-33.5C102.2,439.8,103.2,439.4,103.7,438.6z M137.4,453.8l15.9-11.4c0.2,0.2,0.4,0.5,0.7,0.6
	c0.6,0.3,1.2,0.5,1.8,0.4l8.6,33.5c-0.9,0.3-1.8,0.8-2.5,1.5l-24.5-20.6C138.2,456.4,138.1,454.9,137.4,453.8z M160.7,482.9
	l-33.2,7.5c-0.3-0.8-0.8-1.5-1.6-2c-0.3-0.2-0.6-0.3-1-0.4l8.9-28.5c1.2,0.1,2.4-0.3,3.2-1.2l24.5,20.6c-0.1,0.1-0.1,0.2-0.2,0.3
	C160.6,480.3,160.4,481.7,160.7,482.9z M194.2,461.6L170,478.5c-0.4-0.4-0.8-0.8-1.3-1.1c-1.1-0.7-2.4-0.9-3.5-0.7l-8.7-33.5
	c0.5-0.2,0.9-0.6,1.2-1c0.1-0.1,0.1-0.2,0.1-0.3l36.2,16.3C193.5,459.3,193.6,460.6,194.2,461.6z M118.8,418.1L103,434.8
	c0,0,0,0,0,0c-0.2-0.1-0.3-0.2-0.5-0.2L113,387c0.3,0,0.5,0,0.8,0l6.2,27c-0.6,0.2-1.1,0.6-1.5,1.1
	C118,416.1,118.1,417.3,118.8,418.1z M158,441.2c0.1-0.4,0-0.8-0.1-1.2l24.3-9.5c0.2,0.3,0.5,0.5,0.8,0.7c0.6,0.4,1.3,0.5,1.9,0.3
	l11,24.9c-0.6,0.3-1.2,0.7-1.6,1.3L158,441.2z M177.6,325.8l-35.4,35.8c-0.1-0.1-0.2-0.2-0.4-0.3c-1.4-0.8-3-0.7-4.2,0.2l-21.9-17.4
	c0.5-0.8,0.6-1.8,0.4-2.7l60.6-17.1C176.8,324.9,177.1,325.4,177.6,325.8z M98.8,305.8l12.3,32.9c-0.7,0.3-1.4,0.8-1.8,1.5
	c-0.2,0.3-0.3,0.7-0.4,1l-18.1-3.9c0.1-1-0.3-2-1.2-2.6c-0.1-0.1-0.3-0.1-0.4-0.2l7.8-28.6C97.5,306.1,98.2,306,98.8,305.8z
	 M95.7,299.1c-0.5,0.3-1,0.7-1.3,1.3c-0.4,0.7-0.6,1.4-0.5,2.2l-22.6,9.5c-0.2-0.4-0.5-0.7-0.9-1c-0.4-0.2-0.8-0.4-1.2-0.4l4.8-57.1
	c0.5,0,1-0.1,1.4-0.3L95.7,299.1z M71.1,314.8c0.4-0.6,0.5-1.4,0.3-2l22.5-9.5c0.2,0.9,0.8,1.7,1.6,2.2c0.2,0.1,0.4,0.2,0.6,0.3
	l-7.8,28.6c-0.5-0.1-1.1,0-1.6,0.3l-16-19.5C70.9,315.1,71.1,315,71.1,314.8z M115.2,344.7L137,362c-0.1,0.2-0.3,0.3-0.4,0.5
	c-0.8,1.2-0.7,2.8,0,3.9l-21.5,16.1c-0.2-0.2-0.3-0.3-0.5-0.4c-0.3-0.2-0.6-0.3-0.8-0.3l-0.9-35.8
	C113.8,345.8,114.6,345.3,115.2,344.7z M165,388.5l18-13.7c0.1,0.1,0.3,0.3,0.5,0.4c1.1,0.7,2.4,0.5,3.3-0.4l23.3,30.8
	c-0.7,0.3-1.3,0.7-1.7,1.4l-42.9-16C165.7,390.2,165.5,389.2,165,388.5z M115.6,383.1l21.5-16.1c0.2,0.2,0.5,0.4,0.8,0.6
	c1.4,0.9,3.2,0.7,4.4-0.4l17.5,20.2c-0.4,0.3-0.8,0.6-1,1.1c-0.2,0.4-0.4,0.8-0.5,1.2l-42.3-5.4C116,383.9,115.8,383.5,115.6,383.1z
	 M164.1,393.5l18.4,33.5c-0.1,0.1-0.3,0.3-0.4,0.5c-0.4,0.7-0.5,1.6-0.2,2.3l-24.3,9.5c-0.2-0.3-0.5-0.6-0.8-0.8
	c-0.2-0.1-0.4-0.2-0.6-0.3l5.8-44C162.7,394.2,163.5,393.9,164.1,393.5z M164.6,393c0.2-0.2,0.3-0.4,0.4-0.6
	c0.1-0.2,0.2-0.4,0.3-0.7l42.8,15.9c-0.5,1.1-0.4,2.4,0.3,3.4l-22.2,15.9c-0.1-0.1-0.3-0.3-0.5-0.4c-0.9-0.5-1.9-0.5-2.7,0
	L164.6,393z M182.7,371.5c-0.5,0.9-0.5,1.9,0,2.7l-18.1,13.7c-0.2-0.2-0.5-0.4-0.8-0.6c-1.1-0.7-2.4-0.7-3.5-0.2l-17.6-20.4
	c0.1-0.1,0.2-0.2,0.2-0.3c0.9-1.4,0.7-3.2-0.3-4.4l35.5-35.8c0,0,0,0,0.1,0c0.9,0.5,1.9,0.7,2.8,0.4l3.6,43.6
	C183.9,370.4,183.1,370.8,182.7,371.5z M176.5,323.7l-60.6,17.1c-0.3-0.7-0.8-1.3-1.5-1.7c-0.8-0.5-1.7-0.6-2.6-0.5l-12.3-33
	c0.5-0.3,0.9-0.7,1.3-1.2c0.3-0.5,0.5-1.1,0.5-1.7l75.3,19.5C176.4,322.6,176.4,323.2,176.5,323.7z M103.8,265.6
	c0.2,0.1,0.5,0.2,0.7,0.3l-6.2,32.8c-0.7-0.2-1.4-0.1-2,0.1l-20.4-45.7c0.5-0.3,0.9-0.7,1.2-1.2c0.1-0.1,0.2-0.3,0.2-0.4l25.3,11.1
	C102.3,263.7,102.7,265,103.8,265.6z M90.3,338.4c0.1-0.1,0.1-0.2,0.2-0.4l18.2,3.9c-0.1,1.3,0.6,2.6,1.8,3.4
	c0.6,0.3,1.2,0.5,1.8,0.5l0.9,35.8c-0.2,0-0.5,0.1-0.7,0.1l-22.9-42.6C89.9,339,90.1,338.8,90.3,338.4z M115.6,385.7
	c0.1-0.2,0.2-0.4,0.3-0.7l42.3,5.4c0,1.3,0.6,2.5,1.8,3.2c0.4,0.3,0.9,0.4,1.3,0.5l-5.8,43.9c-0.7,0-1.5,0.3-2,0.8l-30.2-21.3
	c0.6-1.2,0.1-2.7-1-3.4c-0.5-0.3-1-0.4-1.5-0.4l-6.3-27.1C114.9,386.5,115.3,386.2,115.6,385.7z M103.5,435.3l15.8-16.6
	c0,0,0.1,0.1,0.1,0.1c1.1,0.7,2.6,0.4,3.4-0.6l30.2,21.3c-0.4,0.7-0.4,1.6-0.1,2.3l-16,11.5c-0.2-0.2-0.5-0.4-0.7-0.6
	c-1.6-1-3.6-0.6-4.8,0.8l-27.4-15.5C104.4,437,104.2,436,103.5,435.3z M71.8,446.8c0.4-0.6,0.5-1.4,0.3-2l26.9-7
	c0.2,0.6,0.6,1.2,1.2,1.5c0.1,0.1,0.2,0.1,0.3,0.2L91.1,473c-0.4,0-0.9,0-1.3,0.2l-18.3-26C71.6,447.1,71.7,446.9,71.8,446.8z
	 M71,447.7l18.3,25.9c-0.2,0.2-0.4,0.4-0.6,0.7c-0.4,0.6-0.5,1.2-0.4,1.8l-30.3,8.1c-0.2-0.4-0.5-0.8-1-1c-0.2-0.1-0.4-0.2-0.6-0.3
	L69,448C69.7,448.1,70.4,448,71,447.7z M148.9,517.2c-0.3,0.5-0.5,1-0.5,1.6l-40.6-1.4c0-0.9-0.4-1.8-1.1-2.5l14.6-20.8
	c0.2,0.3,0.5,0.5,0.8,0.7c1.2,0.7,2.6,0.7,3.8,0.1l23.5,21.8C149.1,516.9,149,517,148.9,517.2z M204.3,512.3l-48.7,6
	c-0.2-0.9-0.8-1.8-1.7-2.3c-0.2-0.1-0.3-0.2-0.5-0.2c3.5-9.4,9.8-26.1,10.8-28.8c2.1,0.7,4.4,0,5.8-1.8l34.8,24.7c0,0,0,0,0,0
	C204.4,510.7,204.3,511.6,204.3,512.3z M196.6,456.1l-11-24.9c0.4-0.2,0.8-0.5,1-1c0.5-0.9,0.5-1.9,0-2.7l22.2-15.9
	c0.2,0.2,0.5,0.5,0.8,0.7c0.2,0.1,0.4,0.2,0.6,0.3l-12,43.5C197.7,456,197.1,456,196.6,456.1z M177,321.1c-0.1,0.1-0.1,0.2-0.2,0.3
	l-75.6-19.6c-0.1-0.4-0.2-0.8-0.4-1.2l39.6-20.3c0.3,0.4,0.7,0.8,1.2,1.1c1.4,0.8,3.1,0.7,4.3-0.3l32.6,38.5
	C177.9,320.1,177.3,320.5,177,321.1z M140.4,276.4c-0.6,1.1-0.7,2.3-0.3,3.4l-39.7,20.3c-0.3-0.3-0.6-0.7-1-0.9
	c-0.1-0.1-0.3-0.2-0.5-0.2l6.2-32.9c0.9,0,1.7-0.5,2.2-1.3c0.7-1.2,0.4-2.7-0.7-3.5l13.6-24.5c0.7,0.3,1.5,0.2,2.2-0.1l19,38.6
	C141.1,275.5,140.7,275.9,140.4,276.4z M119.1,232.8c-0.7,1.2-0.4,2.7,0.7,3.5l-13.6,24.5c-1.2-0.5-2.5,0-3.2,1.1l-25.4-11.1
	c0.3-1.5-0.3-3.1-1.7-4c-0.1-0.1-0.3-0.1-0.4-0.2L90,208c1.2,0.3,2.5,0,3.4-0.8l25.9,25.3C119.3,232.6,119.2,232.7,119.1,232.8z
	 M119.9,232l-26-25.4c0.1-0.1,0.1-0.2,0.2-0.3c0.5-0.8,0.6-1.7,0.5-2.5l59.7-17.4c0.2,0.3,0.4,0.6,0.7,0.9l-32.4,44.6
	C121.7,231.4,120.7,231.5,119.9,232z M154.4,183.9C154.4,183.9,154.4,183.9,154.4,183.9l-39.2-16.4c0.1-0.6,0-1.2-0.2-1.7l39.3-28.9
	c0.2,0.2,0.4,0.4,0.6,0.5c0.4,0.2,0.8,0.4,1.2,0.4l0.5,44.8C155.8,182.7,154.9,183.1,154.4,183.9z M183.5,158l-24.9,25.4
	c-0.2-0.2-0.3-0.3-0.5-0.4c-0.2-0.1-0.5-0.2-0.7-0.3l-0.5-45c0.6-0.1,1.2-0.5,1.6-1l24.7,17C182.3,155.1,182.5,156.9,183.5,158z
	 M183.5,153.2l-24.7-17c0.2-0.5,0.2-1,0.1-1.6l57.2-19.8c0.2,0.6,0.6,1.2,1.1,1.6l-28.8,36c0,0,0,0-0.1-0.1
	C186.7,151.4,184.7,151.8,183.5,153.2z"/>
</svg>
