<?xml version="1.0" encoding="utf-8"?>
<!-- Generator: Adobe Illustrator 19.1.0, SVG Export Plug-In . SVG Version: 6.00 Build 0)  -->
<svg version="1.1" id="Layer_1" xmlns="http://www.w3.org/2000/svg" xmlns:xlink="http://www.w3.org/1999/xlink" x="0px" y="0px"
	 viewBox="0 0 355 55" enable-background="new 0 0 355 55" xml:space="preserve">
<path fill="#9CC43E" d="M249,25.5h8.2c-1-4-4.2-7.1-8.2-8.2V25.5z M249,25.5"/>
<path fill="#9CC43E" d="M249,31.2v8.2c4-1,7.1-4.2,8.2-8.2H249z M249,31.2"/>
<path fill="#9CC43E" d="M243.3,25.5v-8.2c-4,1-7.1,4.2-8.2,8.2H243.3z M243.3,25.5"/>
<path fill="#9CC43E" d="M243.3,31.2h-8.2c1,4,4.2,7.1,8.2,8.2V31.2z M243.3,31.2"/>
<path fill="#BE1E2D" d="M249,11.5c7.1,1.2,12.8,6.8,14,14h5.7c-1.3-10.3-9.4-18.4-19.7-19.7V11.5z M249,11.5"/>
<path fill="#9CC43E" d="M229.3,25.5c1.2-7.1,6.8-12.8,14-14V5.8c-10.3,1.3-18.4,9.4-19.7,19.7H229.3z M229.3,25.5"/>
<path fill="#9CC43E" d="M243.3,45.2c-7.1-1.2-12.8-6.8-14-14h-5.7c1.3,10.3,9.4,18.4,19.7,19.7V45.2z M243.3,45.2"/>
<path fill="#9CC43E" d="M263,31.2c-1.2,7.1-6.8,12.8-14,14v5.7c10.3-1.3,18.4-9.4,19.7-19.7H263z M263,31.2"/>
<path fill="#FFFFFF" d="M209,19.8c-1.1-4.4-5.1-6.6-9.2-6.6c-4.3,0-7,1.9-7,4.6c0,3.5,5.3,4.8,11.1,6.6c6.8,2.2,14.6,5.6,14.6,13.4
	c0,7.8-7.2,13.4-17.8,13.4c-9.8,0-16.5-5.2-19-13.2l8.9-2.3c1,3.9,4.7,7.6,10.5,7.6c5,0,7.6-2.3,7.6-5.3c0-4.4-6.3-5.5-12.9-7.7
	c-5.5-1.9-12.4-4.6-12.4-12.2c0-6.8,7.2-12.7,17-12.7c8.7,0,15.6,5,17.6,11.9L209,19.8z"/>
<path fill="#FFFFFF" d="M28,51.1l-9.9-15.6c-0.2,0-0.4,0-0.6,0H9.9v15.6H0V5.4h17.5c12.3,0,19.7,6.1,19.7,15.3
	c0,6.3-3.4,10.9-9.4,13.1l11.4,17.3H28z M9.9,27.4h8.9c5.5,0,8.1-3.3,8.1-6.7c0-3.6-2.6-6.8-8.1-6.8H9.9V27.4z"/>
<path fill="#FFFFFF" d="M81.9,42.6v8.5H46.1V5.4h35.4v8.5H56.1v9.7h20.1v8H56.1v11H81.9z"/>
<path fill="#FFFFFF" d="M112,5.4c8.9,0,14.9,5.2,14.9,11.8c0,4.4-3.6,8.2-6.9,9.1v0.1c4.8,1,9.7,5.8,9.7,11.1
	c0,7.7-5.6,13.7-17.4,13.7h-21V5.4H112z M110,23.6c4.1,0,6.9-2.4,6.9-5.3c0-3.1-2.9-5.2-6.9-5.2h-8.8v10.5H110z M111.3,43.4
	c4.7,0,7.9-2.5,7.9-6.4c0-3.9-3.5-6.4-8-6.4h-10.1v12.8H111.3z"/>
<path fill="#FFFFFF" d="M166.4,42.4h-21.7l-3.7,8.8h-10.7l20.6-45.8h9.4l20.6,45.8h-10.7L166.4,42.4z M162.9,34.3L158,22.8
	c-1.1-2.6-2.4-6.3-2.4-6.3h-0.1c-0.1,0-1.4,3.8-2.4,6.3l-4.9,11.6H162.9z"/>
<g>
	<path fill="#FFFFFF" d="M285.6,13.7v11.2H305v8.2h-19.4V51h-9.9V5.2h34.7v8.5H285.6z"/>
	<path fill="#FFFFFF" d="M354.7,5.2v8.5H339V51h-9.9V13.7h-15.6V5.2H354.7z"/>
</g>
</svg>
