<?xml version="1.0" encoding="utf-8"?>
<!-- Generator: Adobe Illustrator 19.1.0, SVG Export Plug-In . SVG Version: 6.00 Build 0)  -->
<svg version="1.1" id="Layer_1" xmlns="http://www.w3.org/2000/svg" xmlns:xlink="http://www.w3.org/1999/xlink" x="0px" y="0px"
	 viewBox="0 0 1986 1986" enable-background="new 0 0 1986 1986" xml:space="preserve">
<path opacity="0.11" fill="#F1F1F1" d="M1116.4,869.5h354.3C1425.6,695.9,1290,560,1116.4,515.2V869.5z M1116.4,869.5"/>
<path opacity="0.11" fill="#F1F1F1" d="M1116.4,1117.4v354c173.6-44.8,309.2-180.8,354.3-354H1116.4z M1116.4,1117.4"/>
<path opacity="0.11" fill="#F1F1F1" d="M868.7,869.5V515.2C695.2,560,559.3,695.9,514.5,869.5H868.7z M868.7,869.5"/>
<path opacity="0.11" fill="#F1F1F1" d="M868.7,1117.4H514.5c44.8,173.3,180.7,309.2,354.3,354V1117.4z M868.7,1117.4"/>
<path opacity="0.11" fill="#F1F1F1" d="M1116.4,262.4c310.3,52.6,554.5,296.6,607.1,607h248.2c-56.8-447.2-407.8-798.5-855.3-855
	V262.4z M1116.4,262.4"/>
<path opacity="0.11" fill="#F1F1F1" d="M261.7,869.5c52.6-310.4,296.4-554.5,607-607v-248c-447.2,56.5-798.6,407.8-855,855H261.7z
	 M261.7,869.5"/>
<path opacity="0.11" fill="#F1F1F1" d="M868.7,1724.1c-310.4-52.6-554.4-296.3-607-606.7H13.8c56.4,447.3,407.7,798.5,855,855
	V1724.1z M868.7,1724.1"/>
<path opacity="0.11" fill="#F1F1F1" d="M1723.5,1117.4c-52.6,310.4-296.7,554.1-607.1,606.7v248.2c447.5-56.4,798.5-407.7,855.3-855
	H1723.5z M1723.5,1117.4"/>
</svg>
